<svg width="25" height="22" viewBox="0 0 25 22" fill="none" xmlns="http://www.w3.org/2000/svg">
<g clip-path="url(#clip0_817_221)">
<path d="M13.1514 3.93494C13.1514 5.01985 13.3278 6.06948 13.6454 7.04855C13.6971 7.20197 13.7046 7.36681 13.6672 7.52431C13.6298 7.68182 13.5489 7.82564 13.4337 7.93941L11.6961 9.32422C12.8868 11.8204 15.136 14.1578 17.7204 15.4015L19.1846 13.6815C19.4316 13.4434 19.7756 13.3728 20.0843 13.4698C21.0633 13.7962 22.113 13.9638 23.1979 13.9638C23.6742 13.9638 24.0711 14.3607 24.0711 14.837V17.8888C24.0711 18.3651 23.8594 18.9385 23.1979 18.9385C15.0037 18.9385 8.19436 12.1203 8.19436 3.93494C8.19436 3.30869 8.75005 3.06172 9.23517 3.06172H12.2782C12.7545 3.06172 13.1514 3.45864 13.1514 3.93494Z" fill="white"/>
</g>
<defs>
<clipPath id="clip0_817_221">
<rect width="22" height="24.3992" fill="white" transform="matrix(0 -1 -1 0 24.3992 22)"/>
</clipPath>
</defs>
</svg>
