<svg width="124" height="39" viewBox="0 0 124 39" fill="none" xmlns="http://www.w3.org/2000/svg">
<path fill-rule="evenodd" clip-rule="evenodd" d="M7.64702 0.256984C7.79509 0.351829 7.94858 0.588997 7.98796 0.784169C8.07366 1.20823 8.08168 1.21196 10.2585 1.82431C11.4321 2.15458 12.0782 2.28127 12.3395 2.23274C12.6103 2.18258 12.7755 2.21874 12.9179 2.35967C13.0275 2.46816 13.3869 2.59905 13.7164 2.65062C14.2237 2.73006 14.6043 2.67255 16.1993 2.27579C21.3343 0.998126 23.2542 0.652111 25.2067 0.652111C26.7855 0.652111 27.5453 0.785336 28.508 1.23121C30.4874 2.14781 31.588 4.31116 31.8302 7.76161C32.0636 11.0854 31.4747 13.3501 29.0676 18.3845L27.98 20.6593L28.0914 22.0009C28.2762 24.2276 28.142 29.1653 27.8536 30.7528C27.109 34.8492 25.4616 37.4826 22.914 38.6486C22.0024 39.0659 21.5877 39.1035 21.203 38.8041C20.7184 38.4269 20.5365 37.6132 20.3412 34.9502C20.0551 31.0486 19.751 29.3365 19.0037 27.422C18.3512 25.7506 17.2674 24.1945 16.4719 23.7875C16.2461 23.672 15.6868 23.5771 15.0304 23.5432L13.9578 23.4876L12.7725 24.5568C11.861 25.3792 11.6012 25.6789 11.6476 25.8548C11.7201 26.1291 11.391 26.6673 11.1508 26.6673C11.0436 26.6673 10.909 26.917 10.7893 27.3381C10.6845 27.7071 10.527 28.2572 10.4395 28.5605C10.3433 28.8936 10.3242 29.139 10.391 29.1798C10.5716 29.2903 10.5179 29.6874 10.2767 30.026C10.1218 30.2434 10.0273 30.6426 9.97382 31.305C9.90403 32.1695 9.92113 32.2994 10.14 32.5749C10.45 32.9649 10.4512 33.4062 10.1429 33.7309C9.92018 33.9654 9.9104 34.0537 10.0146 34.8845C10.0838 35.4363 10.2052 35.8693 10.3287 36.0041C10.5744 36.2728 10.4815 36.7705 10.1672 36.8691C9.91983 36.9468 9.46253 37.8716 9.41432 38.3917C9.3898 38.6564 9.31564 38.751 9.11016 38.7798C8.96067 38.8007 8.76981 38.7615 8.68587 38.6925C8.40694 38.4635 7.33402 38.322 7.07761 38.4805C6.75082 38.6824 6.4509 38.4652 6.36897 37.9672C6.27831 37.4159 5.31349 35.7668 5.08172 35.7668C4.69858 35.7668 4.37155 35.4178 4.37155 35.0088C4.37155 34.7917 4.42991 34.5783 4.50135 34.5347C4.65602 34.44 4.59696 34.1078 4.19153 32.7923C3.91437 31.8932 3.86285 31.8109 3.53311 31.7391C2.75338 31.5697 2.51501 30.5074 3.13547 29.9669L3.43208 29.7085L3.19453 28.1957C3.06379 27.3637 2.95686 26.6397 2.95686 26.587C2.95686 26.5341 2.80207 26.4232 2.61274 26.3402C1.9206 26.037 1.90799 25.1005 2.59093 24.7127C2.92067 24.5255 2.94531 24.4508 3.20396 22.8556C3.46615 21.239 3.46756 21.1871 3.25619 20.956C3.02571 20.704 2.98115 20.0949 3.17602 19.8625C3.2569 19.7662 3.08124 19.277 2.60284 18.2665C1.93334 16.8524 1.90068 16.8074 1.48936 16.74C0.978661 16.6563 0.519831 16.2576 0.420803 15.8118C0.338516 15.4407 0.590211 14.869 0.944119 14.6237C1.16964 14.4675 1.1687 14.439 0.878453 12.546C0.61426 10.8235 0.554609 10.6046 0.296782 10.4127C-0.0891913 10.1252 -0.100981 9.4911 0.274854 9.232C0.502383 9.07509 0.574532 8.82532 0.782019 7.4737L1.02393 5.89844L0.770582 5.73418C0.631353 5.64377 0.448979 5.4066 0.365395 5.20699C0.0401346 4.4298 0.651159 3.61913 1.53593 3.65401C1.94819 3.67034 2.0418 3.61703 2.43425 3.14316C2.77224 2.73496 2.87516 2.50456 2.88507 2.13358C2.89568 1.7367 2.95462 1.62179 3.22353 1.4734C3.51779 1.31101 3.58086 1.31159 3.879 1.47982C4.18505 1.65236 4.26592 1.64909 4.99177 1.43502C5.66834 1.23541 5.78411 1.16075 5.84542 0.884382C5.91674 0.562866 6.28291 0.155489 6.61147 0.0320623C6.84772 -0.0565994 7.31598 0.0451293 7.64702 0.256984ZM7.19208 2.28979L7.22603 3.34521C7.25857 4.36027 7.27248 4.40822 7.58902 4.59709C7.91663 4.79262 7.92677 4.78912 9.85464 3.80404C10.9197 3.2597 11.7529 2.77999 11.7065 2.73788C11.6599 2.69565 10.7941 2.42826 9.78237 2.14361L7.94293 1.62599L7.19208 2.28979ZM4.96183 1.91717C4.60568 2.02777 4.2994 2.19517 4.28125 2.2892C4.26297 2.38335 4.72204 2.9271 5.30147 3.49757C6.63611 4.81186 6.73125 4.79926 6.72441 3.30975L6.71934 2.22702L6.30354 1.96454C5.81583 1.65667 5.80309 1.6562 4.96183 1.91717ZM2.91254 3.27288C2.36835 3.93831 2.35645 3.96923 2.49285 4.35654C2.61533 4.70419 2.61687 4.70477 4.20921 4.90997C5.1725 5.0341 5.84553 5.07318 5.91073 5.00867C5.97592 4.94415 5.60233 4.49187 4.96619 3.8654C3.71066 2.62869 3.49102 2.56534 2.91254 3.27288ZM12.9368 3.06453C12.8448 3.15552 12.8578 4.37754 12.9619 5.43518L13.0365 6.19347L13.2575 5.31852C13.3791 4.8373 13.6053 4.15985 13.7601 3.81314C13.9149 3.46642 14.0277 3.17185 14.0106 3.15855C13.9108 3.08074 13.0009 3.00106 12.9368 3.06453ZM10.1109 4.1672C8.5075 4.96387 8.01967 5.25727 8.04879 5.40718C8.07626 5.54799 8.60488 5.77244 9.91335 6.19895L11.7397 6.79427L12.5265 6.19347L12.4482 4.73522C12.4051 3.93318 12.3342 3.24243 12.2906 3.20032C12.247 3.15809 11.2661 3.59323 10.1109 4.1672ZM2.36222 5.44463C2.29007 5.5782 2.06266 5.75716 1.85706 5.84244C1.48382 5.99713 1.48288 6.00005 1.24144 7.55373C1.10846 8.40966 1.03961 9.12666 1.08842 9.14695C1.25606 9.21695 5.89717 5.96365 5.90071 5.77373C5.90342 5.62289 5.6252 5.55044 4.44382 5.39458C2.59305 5.1503 2.52055 5.15204 2.36222 5.44463ZM7.62474 6.3302C7.4492 6.47952 7.16272 6.60365 6.98801 6.60598C6.69564 6.60983 6.60687 6.74434 5.86935 8.30023C5.42879 9.22978 5.10306 10.0459 5.14538 10.1137C5.25714 10.2927 5.42997 10.2326 8.67455 8.8868C11.4248 7.74598 11.9231 7.46378 11.5692 7.24738C11.5007 7.20538 10.657 6.92085 9.69431 6.61485L7.94375 6.05861L7.62474 6.3302ZM3.67977 8.02013C2.03531 9.14905 1.32938 9.69654 1.43985 9.75744C1.5285 9.80632 2.01315 9.96451 2.51666 10.1092L3.43231 10.372L3.70323 10.1201C3.85224 9.98166 4.12009 9.86827 4.29846 9.86827C4.60002 9.86827 4.68007 9.74904 5.44023 8.16888C5.88986 7.2342 6.2578 6.44674 6.2578 6.41898C6.2578 6.27467 5.88514 6.50612 3.67977 8.02013ZM10.8555 8.46344C10.4341 8.6438 9.04048 9.22523 7.75866 9.75545C6.47684 10.2856 5.44695 10.7381 5.47005 10.7608C5.49316 10.7837 6.38276 10.9096 7.44696 11.0405L9.3819 11.2786L9.61768 11.0024C9.97323 10.586 11.734 8.30875 11.779 8.20714C11.8412 8.06668 11.6745 8.11288 10.8555 8.46344ZM11.0393 9.87153C10.4081 10.6498 9.90957 11.3025 9.9315 11.3221C9.95343 11.3416 10.7342 11.4469 11.6666 11.5561C13.7774 11.8032 13.8041 11.7905 13.5293 10.668C13.4294 10.2602 13.2871 9.6248 13.2132 9.2558C13.0952 8.66748 13.0448 8.585 12.802 8.585C12.6498 8.585 12.4492 8.55607 12.3562 8.52084C12.2435 8.47803 11.8047 8.9281 11.0393 9.87153ZM1.116 10.3367C0.989743 10.4616 1.53475 14.2162 1.70333 14.383C1.8751 14.553 2.15615 14.2183 2.8932 12.9658C3.57944 11.7998 3.63025 11.668 3.4777 11.4524C3.38575 11.3226 3.31053 11.1281 3.31053 11.0203C3.31053 10.8381 3.03703 10.7295 1.41875 10.2695C1.31842 10.2409 1.18214 10.2712 1.116 10.3367ZM5.43256 11.3761C5.43256 11.4354 5.88857 11.8948 6.44595 12.3969C7.749 13.5706 7.8749 13.5782 8.56609 12.5238C9.16957 11.6035 9.33203 11.7211 7.07796 11.4476C5.33354 11.236 5.43256 11.2402 5.43256 11.3761ZM4.9241 11.8102C4.88096 11.8529 4.6506 11.9192 4.41222 11.9575C4.00526 12.023 3.93017 12.1085 3.18369 13.3577C2.50947 14.4858 2.40938 14.7214 2.52538 14.9075C2.60967 15.0428 2.75244 15.1071 2.89792 15.0752C3.0276 15.0467 3.97414 14.8484 5.00144 14.6345C6.63363 14.2946 6.88745 14.2111 7.01383 13.9725C7.14846 13.7183 7.10484 13.6496 6.38394 12.979C5.20657 11.8842 5.00922 11.7261 4.9241 11.8102ZM8.97623 12.5065C8.64826 12.9354 8.37983 13.3244 8.37983 13.3712C8.37983 13.4179 8.45716 13.5197 8.55171 13.5973C8.68988 13.7108 9.1625 13.5944 10.9628 13.0033C12.1944 12.5989 13.1866 12.2528 13.1677 12.234C13.1487 12.2154 12.5014 12.1214 11.7291 12.0254C10.9569 11.9294 10.1557 11.823 9.94883 11.7888C9.59775 11.731 9.53303 11.7787 8.97623 12.5065ZM11.1503 13.4166C9.33627 14.0043 8.91033 14.1825 8.91033 14.3537C8.91033 14.5074 9.71399 15.0228 11.8537 16.2414C13.4725 17.1635 14.8386 17.9178 14.8894 17.9178C15.1167 17.9178 14.9294 16.1648 14.5025 14.296C14.2734 13.294 14.2109 13.1598 13.878 12.9572C13.6745 12.8334 13.4815 12.7228 13.4491 12.7115C13.4167 12.7002 12.3822 13.0175 11.1503 13.4166ZM5.90413 14.8964C5.35299 15.0197 4.41128 15.2293 3.81157 15.3621C3.02406 15.5367 2.72108 15.6529 2.72108 15.7804C2.72108 15.8774 2.63243 16.1055 2.52397 16.287C2.32969 16.6126 2.33652 16.6376 3.021 18.089C3.59371 19.3033 3.75557 19.5548 3.94632 19.5267C4.21063 19.4878 7.25303 14.9459 7.13809 14.7618C7.05545 14.6294 7.13962 14.6202 5.90413 14.8964ZM8.4976 14.9606C8.4976 15.0151 9.09236 16.3853 9.81915 18.0053C10.9021 20.4189 11.1829 20.951 11.3735 20.951C11.5016 20.951 11.8275 21.0569 12.0977 21.1864L12.5892 21.4218L14.6138 20.3561L14.7301 19.7494C14.9895 18.3986 15.2833 18.7158 12.1043 16.9137C10.5422 16.0282 9.09165 15.2042 8.88086 15.0826C8.67007 14.9611 8.49772 14.9061 8.4976 14.9606ZM7.85887 15.2443C7.82739 15.3352 7.45875 16.6598 7.03953 18.1878C6.02732 21.8774 5.902 21.6437 8.99875 21.837C9.77483 21.8854 10.2661 21.8732 10.2661 21.8055C10.2661 21.7447 10.3735 21.5809 10.5047 21.4415L10.7433 21.188L9.43058 18.2405C8.70862 16.6194 8.07249 15.2448 8.01696 15.186C7.95707 15.1225 7.8927 15.1462 7.85887 15.2443ZM5.85438 17.7585C5.14692 18.828 4.57892 19.7607 4.59236 19.8313C4.60568 19.9017 4.63256 20.1323 4.65201 20.3437C4.69811 20.8427 5.10329 21.1453 5.52746 20.9973C5.80227 20.9015 5.88491 20.6864 6.50938 18.4428C6.8845 17.0954 7.17994 15.9527 7.16603 15.9034C7.152 15.8542 6.56184 16.6889 5.85438 17.7585ZM4.11066 21.2135C3.98557 21.3105 3.83998 21.8531 3.67552 22.835C3.5396 23.6467 3.42843 24.3775 3.42843 24.4593C3.42843 24.541 3.79447 24.1243 4.24187 23.5331C5.00922 22.5191 5.05178 22.4306 4.99366 21.9672C4.95534 21.6612 4.83757 21.3999 4.68136 21.2744C4.37862 21.0312 4.34974 21.0281 4.11066 21.2135ZM13.474 21.4518C12.9013 21.7377 12.7404 21.8739 12.7666 22.0504C12.8114 22.3507 13.5313 22.5541 13.7543 22.3296C13.9477 22.135 14.4124 21.0653 14.2996 21.0746C14.2534 21.0785 13.8818 21.2482 13.474 21.4518ZM6.45137 22.3632C6.25332 22.592 6.24613 22.68 6.37581 23.2845C6.55028 24.0981 6.56962 24.1285 7.07218 24.3726L7.47384 24.5679L8.87308 23.664C9.77105 23.0839 10.2601 22.6974 10.2383 22.5847C10.2034 22.4045 9.93044 22.3622 7.67248 22.1876C6.73914 22.1155 6.65532 22.1275 6.45137 22.3632ZM4.60709 23.7934C3.59618 25.1244 3.60278 25.2674 4.67582 25.2674C5.38788 25.2674 5.43575 25.2497 5.60633 24.9233C5.70525 24.7339 5.87288 24.5311 5.97863 24.4725C6.16879 24.3673 6.13472 24.0152 5.82691 22.905C5.71585 22.5045 5.42549 22.7161 4.60709 23.7934ZM12.4005 23.0829C12.249 23.264 11.98 23.4407 11.8028 23.4759C11.4989 23.5361 11.4742 23.5898 11.3669 24.4266L11.2533 25.3137L12.3512 24.1637C12.955 23.5313 13.4491 22.9754 13.4491 22.9284C13.4491 22.8815 13.2751 22.823 13.0626 22.7984C12.7517 22.7625 12.622 22.8182 12.4005 23.0829ZM9.08104 24.0753C8.14593 24.6937 7.73202 25.0342 7.76008 25.1625C7.79155 25.3064 8.07084 25.3816 8.97612 25.4901C10.0907 25.6238 10.1685 25.6189 10.4862 25.395C10.7741 25.1923 10.837 25.0433 10.9337 24.337C11.0412 23.5508 11.0345 23.5075 10.7781 23.3412C10.6307 23.2457 10.495 23.1692 10.4765 23.1711C10.458 23.1732 9.83011 23.58 9.08104 24.0753ZM4.60733 25.7078C4.05631 25.7471 3.91637 25.8067 3.67552 26.1049L3.39223 26.4558L3.59559 27.8157C3.83986 29.4491 3.89668 29.7005 4.02071 29.7005C4.07305 29.7005 4.51785 28.9366 5.0091 28.003L5.90236 26.3056L5.64524 25.9614C5.50389 25.7722 5.35841 25.6273 5.32198 25.6394C5.28556 25.6516 4.96395 25.6824 4.60733 25.7078ZM7.39509 26.1529L7.05887 26.5517L7.20222 27.5516C7.29311 28.1853 7.40499 28.5739 7.50779 28.613C7.68828 28.6815 10.298 26.3462 10.2058 26.1986C10.1748 26.1489 9.68499 26.0462 9.11723 25.9704C8.54959 25.8946 8.00552 25.8149 7.90826 25.7932C7.81101 25.7716 7.58006 25.9334 7.39509 26.1529ZM5.40062 28.2131C4.83545 29.2883 4.56383 29.9233 4.63173 30.0109C4.76424 30.182 6.49358 29.5129 6.49358 29.2908C6.49358 29.2095 6.5893 29.0261 6.70637 28.8831C6.90077 28.6454 6.90643 28.5466 6.77156 27.7327C6.69034 27.2429 6.62114 26.7768 6.61772 26.6965C6.6143 26.6164 6.53567 26.5507 6.44301 26.5507C6.34575 26.5507 5.90519 27.2532 5.40062 28.2131ZM9.12218 27.9415C8.46058 28.5727 7.95212 29.1217 7.99232 29.1615C8.03252 29.2013 8.36167 29.2327 8.72371 29.2313C9.6475 29.2277 9.83566 29.0439 10.1851 27.8048C10.3434 27.2434 10.4396 26.7862 10.3989 26.7889C10.3583 26.7916 9.78367 27.3102 9.12218 27.9415ZM7.90826 29.8448C7.90826 29.994 9.34122 32.4044 9.3971 32.3491C9.41443 32.332 9.47868 31.8243 9.53987 31.2207C9.68476 29.791 9.63147 29.7005 8.64614 29.7005C8.13862 29.7005 7.90826 29.7455 7.90826 29.8448ZM5.75806 30.2093C4.97244 30.5246 4.84559 30.6149 4.84441 30.8596C4.8437 31.0158 4.72852 31.2643 4.58859 31.4119L4.33394 31.68L4.65413 32.761C5.11273 34.3088 5.07654 34.2245 5.19289 34.0169C5.40734 33.6345 6.74563 30.0413 6.70932 29.9454C6.68786 29.8891 6.2598 30.0078 5.75806 30.2093ZM6.8779 30.9838C6.74351 31.3367 6.3909 32.2446 6.0944 33.0015C5.63899 34.1638 5.57757 34.4131 5.69911 34.6056C5.78965 34.7491 5.97439 34.834 6.19779 34.8348C6.3929 34.8355 6.7382 34.8656 6.96514 34.9017C7.6759 35.0147 7.71752 34.8032 7.43199 32.5276C7.29736 31.4539 7.17251 30.523 7.15471 30.4588C7.13679 30.3946 7.01218 30.6309 6.8779 30.9838ZM7.67425 30.6338C7.67673 31.0009 8.1286 34.3905 8.182 34.4433C8.21289 34.4739 8.37641 34.3195 8.54534 34.1003C8.78124 33.7942 8.83594 33.6198 8.78113 33.3486C8.74187 33.1545 8.76321 32.8968 8.82852 32.776C8.92389 32.5995 8.82215 32.3507 8.31015 31.5077C7.95966 30.9308 7.67355 30.5375 7.67425 30.6338ZM8.93981 34.3316C8.47709 34.935 8.51457 35.2342 9.09825 35.5988C9.36374 35.7646 9.60341 35.8781 9.63088 35.8511C9.65823 35.8239 9.6277 35.4395 9.56309 34.9969C9.49837 34.5541 9.4445 34.1263 9.4432 34.0461C9.43919 33.799 9.27815 33.8904 8.93981 34.3316ZM5.72552 35.4196C5.67117 35.5067 6.52435 37.1697 6.7883 37.4912C6.85986 37.5783 7.53491 35.7351 7.48162 35.5978C7.44802 35.511 7.30466 35.4091 7.16331 35.3716C6.74209 35.2598 5.8058 35.2911 5.72552 35.4196ZM8.71016 36.7001C8.88015 37.2134 9.0531 37.6334 9.09436 37.6334C9.22534 37.6334 9.54022 36.7134 9.48305 36.4974C9.43801 36.3269 8.65015 35.7668 8.45539 35.7668C8.42545 35.7668 8.54004 36.1868 8.71016 36.7001ZM7.581 36.8658C7.16803 37.8694 7.18807 37.9136 8.10821 38.0293L8.72077 38.1064L8.37464 37.0934C8.18436 36.5362 8.00883 36.0607 7.98454 36.0367C7.96014 36.0126 7.77859 36.3857 7.581 36.8658Z" fill="black"/>
<path d="M38.2438 27.375V10.887H45.2045C47.0154 10.887 48.5433 11.183 49.7883 11.775C51.0495 12.367 52.0034 13.271 52.6502 14.487C53.3131 15.687 53.6446 17.231 53.6446 19.119C53.6446 20.991 53.3131 22.543 52.6502 23.775C52.0034 24.991 51.0495 25.895 49.7883 26.487C48.5433 27.079 47.0154 27.375 45.2045 27.375H38.2438ZM42.5851 24.015H45.156C45.8351 24.015 46.4252 23.919 46.9264 23.727C47.4277 23.535 47.8481 23.255 48.1876 22.887C48.5271 22.519 48.7778 22.063 48.9395 21.519C49.1011 20.975 49.182 20.351 49.182 19.647V18.639C49.182 17.919 49.1011 17.287 48.9395 16.743C48.7778 16.199 48.5271 15.743 48.1876 15.375C47.8481 15.007 47.4277 14.727 46.9264 14.535C46.4252 14.343 45.8351 14.247 45.156 14.247H42.5851V24.015Z" fill="black"/>
<path d="M62.4941 27.663C61.0389 27.663 59.802 27.431 58.7834 26.967C57.7647 26.487 56.9806 25.759 56.4308 24.783C55.8973 23.807 55.6305 22.559 55.6305 21.039C55.6305 19.551 55.8973 18.319 56.4308 17.343C56.9644 16.367 57.7324 15.639 58.7349 15.159C59.7373 14.679 60.9419 14.439 62.3486 14.439C63.7391 14.439 64.9113 14.671 65.8653 15.135C66.8354 15.599 67.5711 16.311 68.0723 17.271C68.5735 18.231 68.8242 19.471 68.8242 20.991V21.831H59.6565C59.6565 22.503 59.7535 23.071 59.9475 23.535C60.1416 23.999 60.4407 24.351 60.8449 24.591C61.2491 24.831 61.7908 24.951 62.4698 24.951C62.8741 24.951 63.2298 24.903 63.537 24.807C63.8442 24.711 64.1029 24.575 64.3131 24.399C64.5233 24.207 64.685 23.983 64.7981 23.727C64.9113 23.471 64.9679 23.183 64.9679 22.863H68.8242C68.8242 23.631 68.6786 24.319 68.3876 24.927C68.1127 25.519 67.7004 26.023 67.1507 26.439C66.601 26.839 65.93 27.143 65.1377 27.351C64.3616 27.559 63.4804 27.663 62.4941 27.663ZM59.6807 19.647H64.7739C64.7739 19.231 64.7173 18.871 64.6041 18.567C64.5071 18.247 64.3535 17.983 64.1433 17.775C63.9493 17.567 63.7068 17.415 63.4157 17.319C63.1409 17.207 62.8175 17.151 62.4456 17.151C61.8635 17.151 61.3785 17.247 60.9904 17.439C60.6024 17.631 60.3032 17.911 60.093 18.279C59.8828 18.647 59.7454 19.103 59.6807 19.647Z" fill="black"/>
<path d="M71.2529 27.375V14.727H74.5271L74.8181 16.527H74.9879C75.3112 16.095 75.6831 15.719 76.1035 15.399C76.5239 15.079 77.0009 14.839 77.5344 14.679C78.068 14.519 78.6339 14.439 79.2322 14.439C80.1538 14.439 80.9299 14.607 81.5605 14.943C82.2072 15.279 82.7004 15.783 83.0399 16.455C83.3794 17.127 83.5492 17.983 83.5492 19.023V27.375H79.5717V19.575C79.5717 19.223 79.5232 18.927 79.4262 18.687C79.3453 18.431 79.2241 18.215 79.0624 18.039C78.9007 17.863 78.6986 17.735 78.4561 17.655C78.2135 17.575 77.9387 17.535 77.6315 17.535C77.1626 17.535 76.7503 17.647 76.3945 17.871C76.0388 18.079 75.7559 18.367 75.5457 18.735C75.3355 19.087 75.2304 19.503 75.2304 19.983V27.375H71.2529Z" fill="black"/>
<path d="M90.9926 27.663C90.168 27.663 89.4647 27.543 88.8826 27.303C88.3167 27.047 87.8883 26.671 87.5972 26.175C87.3223 25.679 87.1849 25.079 87.1849 24.375V17.583H85.5114V14.727H87.3062L88.1308 11.031H91.1382V14.727H93.6362V17.583H91.1382V23.415C91.1382 23.863 91.2271 24.207 91.4049 24.447C91.5828 24.687 91.9062 24.807 92.3751 24.807H93.6362V27.255C93.426 27.319 93.1593 27.383 92.8359 27.447C92.5287 27.527 92.2134 27.583 91.89 27.615C91.5666 27.647 91.2675 27.663 90.9926 27.663Z" fill="black"/>
<path d="M95.8376 13.023V9.99898H99.8151V13.023H95.8376ZM95.8376 27.375V14.727H99.8151V27.375H95.8376Z" fill="black"/>
<path d="M108.306 27.663C107.465 27.663 106.673 27.575 105.929 27.399C105.201 27.223 104.555 26.967 103.989 26.631C103.439 26.295 103.002 25.879 102.679 25.383C102.372 24.887 102.218 24.311 102.218 23.655C102.218 23.591 102.218 23.535 102.218 23.487C102.218 23.423 102.226 23.367 102.242 23.319H106.002C106.002 23.351 106.002 23.391 106.002 23.439C106.002 23.471 106.002 23.503 106.002 23.535C106.018 23.887 106.131 24.183 106.341 24.423C106.568 24.647 106.859 24.815 107.214 24.927C107.57 25.023 107.958 25.071 108.379 25.071C108.686 25.071 109.009 25.039 109.349 24.975C109.704 24.911 110.003 24.799 110.246 24.639C110.489 24.479 110.61 24.247 110.61 23.943C110.61 23.607 110.456 23.351 110.149 23.175C109.858 22.999 109.462 22.855 108.961 22.743C108.476 22.615 107.95 22.495 107.384 22.383C106.818 22.255 106.244 22.111 105.662 21.951C105.096 21.791 104.571 21.575 104.086 21.303C103.617 21.015 103.237 20.647 102.946 20.199C102.655 19.751 102.509 19.183 102.509 18.495C102.509 17.759 102.663 17.135 102.97 16.623C103.293 16.095 103.73 15.671 104.28 15.351C104.829 15.031 105.46 14.799 106.171 14.655C106.899 14.511 107.667 14.439 108.476 14.439C109.219 14.439 109.923 14.511 110.586 14.655C111.265 14.799 111.871 15.023 112.405 15.327C112.954 15.615 113.383 15.991 113.69 16.455C113.997 16.903 114.151 17.431 114.151 18.039C114.151 18.119 114.143 18.207 114.127 18.303C114.127 18.383 114.127 18.439 114.127 18.471H110.392V18.279C110.392 18.007 110.303 17.783 110.125 17.607C109.947 17.431 109.704 17.295 109.397 17.199C109.09 17.087 108.75 17.031 108.379 17.031C108.136 17.031 107.893 17.055 107.651 17.103C107.425 17.135 107.214 17.191 107.02 17.271C106.826 17.335 106.665 17.431 106.535 17.559C106.422 17.687 106.366 17.847 106.366 18.039C106.366 18.279 106.471 18.479 106.681 18.639C106.891 18.783 107.174 18.903 107.53 18.999C107.902 19.095 108.306 19.199 108.742 19.311C109.341 19.439 109.971 19.575 110.634 19.719C111.297 19.847 111.919 20.039 112.502 20.295C113.1 20.535 113.577 20.903 113.932 21.399C114.304 21.879 114.49 22.543 114.49 23.391C114.49 24.191 114.329 24.871 114.005 25.431C113.682 25.975 113.237 26.415 112.671 26.751C112.105 27.071 111.451 27.303 110.707 27.447C109.963 27.591 109.163 27.663 108.306 27.663Z" fill="black"/>
<path d="M121.356 27.663C120.532 27.663 119.828 27.543 119.246 27.303C118.68 27.047 118.252 26.671 117.961 26.175C117.686 25.679 117.549 25.079 117.549 24.375V17.583H115.875V14.727H117.67L118.495 11.031H121.502V14.727H124V17.583H121.502V23.415C121.502 23.863 121.591 24.207 121.769 24.447C121.947 24.687 122.27 24.807 122.739 24.807H124V27.255C123.79 27.319 123.523 27.383 123.2 27.447C122.892 27.527 122.577 27.583 122.254 27.615C121.93 27.647 121.631 27.663 121.356 27.663Z" fill="black"/>
</svg>
