<svg width="202" height="204" viewBox="0 0 202 204" fill="none" xmlns="http://www.w3.org/2000/svg">
<g clip-path="url(#clip0_817_383)">
<path d="M108.597 33.3117C103.37 26.8839 97.0956 21.5941 89.8194 17.6434C83.6778 14.3086 77.1115 12.3831 70.27 11.2006C64.1562 10.1438 57.6013 10.2707 51.4924 11.2981C11.2158 18.0717 -10.4938 63.3017 5.67354 99.9345C21.4303 135.637 67.5149 147.82 98.3079 123.861C104.734 118.86 112.843 111.105 115.285 103.033C119.489 104.507 122.712 108.435 126.089 111.23C131.163 115.43 136.589 119.229 141.78 123.287C144.957 125.771 148.406 129.198 152.069 130.896C155.672 132.566 162.236 131.842 166.216 131.962C169.226 132.052 173.366 133.371 176.248 132.19C179.26 130.956 181.849 126.099 182.939 123.175C183.795 120.878 183.937 118.45 186.28 117.215C189.136 115.71 190.98 117.234 193.74 117.753C194.702 117.933 195.591 117.363 196.569 117.563C197.591 117.773 200.294 119.097 201.11 117.825C201.69 116.92 200.563 114.065 200.247 113.104C199.657 111.308 197.544 110.863 197.341 108.972C194.541 108.676 195.141 103.177 195.026 100.967C193.592 100.779 192.342 100.706 190.91 100.967C190.901 99.4146 190.502 97.8518 190.852 96.3193C191.264 94.514 192.74 91.9916 192.218 90.1218C191.542 87.6983 188.531 85.2826 187.209 83.0711C186.594 82.0424 186.518 80.9705 185.426 80.2536C183.924 79.2677 182.211 80.0543 180.621 78.9106C177.485 76.6544 174.415 73.4563 170.332 73.337C171.003 69.8853 169.092 66.6608 166.47 64.2257C165.712 63.5225 164.623 63.796 163.876 62.9521C162.912 61.8619 160.892 59.4717 162.872 58.618C162.615 56.6377 162.316 54.8644 161.843 52.937L164.416 52.6788C164.384 51.5847 163.753 50.1654 163.97 49.1248C164.321 47.4424 167.678 45.0146 169.303 44.9319C169.306 43.7288 169.767 42.1919 169.37 41.0585C168.941 39.835 166.99 38.2627 167.249 36.9504C167.519 35.5833 172.914 34.0474 170.372 31.7866C168.806 30.3934 165.898 31.5614 164.174 31.5769C163.173 31.5857 159.447 28.9765 158.832 28.0942C157.993 26.889 158.211 25.288 157.477 24.0418C156.934 23.1186 155.716 23.357 155.272 22.5885C154.569 21.3715 154.383 19.6266 153.61 18.2404C152.662 16.5397 154.151 14.686 151.554 14.2028L151.811 12.3952C150.773 12.3871 149.454 11.9195 148.467 12.2259C147.791 12.436 146.811 13.6084 146.072 13.3186C144.367 12.6507 144.375 10.5088 141.788 10.3918C140.002 10.311 139.183 12.0716 137.149 11.7214C133.738 11.134 130.029 8.6434 126.364 10.1019C125.058 10.6215 124.681 12.1655 123.679 13.0362C122.876 13.7345 121.628 13.5623 120.886 14.261C119.173 15.8724 118.067 18.8292 116.056 20.619C114.291 22.1896 111.977 21.6814 110.159 22.9354C107.034 25.0901 107.357 30.3067 108.597 33.3117ZM144.609 14.7193C147.113 14.5549 148.562 12.8746 151.297 12.9117C151.233 15.1803 153.451 15.9404 152.326 18.5927C155.051 19.7335 154.2 21.6662 154.898 24.0155C157.676 23.4447 158.187 27.5374 158.499 29.6965C160.585 29.4395 162.146 30.5781 162.872 32.537C164.059 32.2052 171.119 30.6976 170.137 33.5658C169.547 35.2871 166.437 35.1831 166.558 37.1887C166.641 38.5648 168.208 39.8823 168.688 41.2052C169.041 42.1746 168.734 43.3859 168.789 44.4155C167.745 44.4679 167.199 44.6864 166.473 45.4484L165.445 44.6737C165.537 45.5914 165.37 46.3592 165.187 47.256C162.515 48.0862 163.692 50.096 163.901 52.1623L161.329 52.4205C161.236 53.0103 161.085 53.4372 160.814 53.9699C163.392 55.6099 161.525 57.9975 160.557 59.9091C162.137 60.565 162.549 62.5715 163.753 63.6971C164.424 64.3248 165.363 64.1797 166.039 64.7439C169.064 67.2679 170.324 70.4735 169.56 74.1117C173.571 73.4039 176.887 76.8153 179.849 79.0513C181.696 80.4452 183.173 79.6868 184.94 80.634C186.067 81.2385 186.093 82.3481 186.638 83.358C187.903 85.6986 190.942 87.8194 191.573 90.38C192.01 92.1512 190.747 94.3446 190.371 96.061C189.975 97.8661 190.392 99.6592 190.396 101.484C191.486 101.453 193.381 100.831 194.245 101.73C196.099 103.66 193.149 109.1 196.826 109.489V111.038C199.717 111.439 200.597 115.212 200.685 117.752C195.791 117.742 188.802 113.82 184.549 117.664C183.336 118.761 183.09 120.894 182.6 122.4C181.615 125.43 178.671 131.298 175.219 131.885C170.289 132.723 164.247 131.3 159.271 130.951C157.001 130.792 154.473 131.327 152.326 130.371C149.465 129.098 146.846 126.446 144.352 124.563C138.503 120.146 132.542 115.765 126.86 111.137C122.784 107.817 119.403 104.12 114.513 102.001C108.495 99.3927 103.54 94.0716 97.5362 91.8274C93.1667 90.1941 86.5806 91.4062 82.6834 88.6984C81.48 87.8623 83.196 86.5572 83.6459 85.7319C82.7981 85.8667 81.5204 86.44 80.8743 85.6183C79.7468 84.1849 80.6008 82.6252 80.5697 81.0838C80.5072 77.9902 76.3563 71.7985 78.4286 69.0442C79.6347 67.4411 82.4732 66.5257 84.1604 65.4786C89.1593 62.3757 94.2339 59.4288 99.3368 56.5052C101.124 55.4811 103.779 55.3504 105.106 53.6882C108.166 49.854 106.908 46.418 107.744 42.0914C108.184 39.8123 109.692 37.4118 109.607 35.1193C109.473 31.4793 107.289 28.8224 109.191 25.0493C110.483 22.4866 112.821 23.1259 115.028 22.0413C116.713 21.2129 118.004 19.4584 119.222 18.0762C120.168 17.0022 121.129 16.2348 120.944 14.7193C122.054 14.3165 123.311 14.2072 124.193 13.3515C125.067 12.504 125.561 10.8337 126.878 10.5653C130.913 9.74364 134.155 12.1439 137.921 12.3645C139.96 12.4839 141.207 10.6271 143.32 11.2715C144.983 11.7787 145.42 13.328 144.609 14.7193ZM121.973 15.2357C121.613 17.7068 117.312 21.9548 115.028 22.8667C113.309 23.5531 111.071 23.2924 109.992 25.0592C107.8 28.647 110.285 31.6061 110.389 35.1193C110.461 37.5536 108.956 39.9484 108.481 42.3496C107.613 46.74 108.74 49.9687 105.84 53.9619C104.388 55.9619 101.417 56.247 99.3368 57.386C94.5277 60.0191 89.8845 62.917 85.1893 65.7451C83.4689 66.7814 80.4483 67.7807 79.2013 69.3546C77.4192 71.6038 80.963 78.2666 81.3751 80.8248C81.5737 82.0568 80.722 83.2034 81.2146 84.3858C81.8564 85.9256 86.2707 84.9988 82.8742 87.7977C86.7303 90.4916 93.1526 89.4641 97.5362 91.0481C101.342 92.4229 104.685 95.6933 108.083 97.8524C111.353 99.9303 115.054 101.053 118.372 103.008C121.844 105.054 124.779 108.4 127.889 110.972C132.795 115.029 138.056 118.672 143.066 122.603C145.933 124.854 149.201 128.228 152.583 129.613C154.756 130.503 157.254 130.017 159.528 130.177C164.413 130.519 169.554 131.415 174.448 131.17C181.081 130.838 180.407 120.364 184.004 117.122C188.427 113.136 194.896 116.642 199.913 116.977C199.583 115.741 199.227 113.62 198.419 112.646C197.25 111.237 194.954 110.837 194.36 108.706C193.944 107.213 194.763 103.302 193.522 102.298C192.701 101.633 190.63 102.253 189.624 102.258C189.624 100.336 189.138 98.2005 189.509 96.3193C189.852 94.5747 191.319 92.1559 190.72 90.38C189.671 87.2761 185.529 85.6816 185.508 82.1167C183.984 81.0169 182.574 81.8032 181.136 80.9475C176.743 78.3347 174.27 74.599 168.789 74.8864C168.74 73.9433 168.638 73.4829 167.76 73.0788V72.5623C170.737 71.5276 167.914 66.9084 165.959 67.656C165.674 64.8395 162.376 63.57 160.814 60.6838L159.528 60.9421C159.902 59.104 161.81 57.5161 161.224 55.5712C160.955 54.6818 159.948 54.0693 159.528 53.1952C160.407 52.7911 160.509 52.3307 160.557 51.3876C161.334 51.5297 162.083 51.6231 162.872 51.6459C162.802 50.6576 162.205 49.5328 162.429 48.5626C162.812 46.9063 164.572 45.4166 165.187 43.6408L166.216 44.1572C166.831 43.8293 167.323 43.6997 168.017 43.6408C168.052 43.0143 168.134 42.4449 168.274 41.8332L167.245 41.3167C167.518 39.7036 166.263 39.2362 165.743 37.881C165.403 36.9953 165.905 35.7883 165.959 34.861C167.516 34.7699 169.01 34.4017 169.56 32.7952C168.069 32.9584 164.529 33.4276 163.166 33.0449C160.752 32.3671 160.808 30.3276 157.728 30.7294C157.7 29.3344 157.288 26.0586 156.371 24.9813C155.703 24.1967 154.583 24.6058 154.015 23.4855C153.03 21.5419 154.4 19.5997 151.297 19.3674C151.72 18.0359 151.956 16.8895 152.069 15.494C151.001 15.1999 150.491 14.7911 150.268 13.6864C148.539 13.6128 145.761 16.5834 144.635 16.1593C142.939 15.5207 145.046 13.141 143.524 12.2106C141.881 11.2061 140.898 12.9043 139.449 13.1822C137.069 13.6386 134.887 11.5649 132.777 12.137C131.897 10.9437 130.452 11.4642 129.175 11.6141C128.447 11.6997 127.61 11.2383 126.926 11.4881C125.07 12.1658 124.182 14.4975 121.973 15.2357ZM52.5213 13.4281L49.1773 14.2028C49.6411 14.4527 49.9575 14.585 50.4634 14.7193C49.6004 15.3225 48.4177 15.5924 47.3767 15.7522L48.6628 16.0104C47.7875 16.3367 47.129 16.2561 46.3478 15.7522L45.8333 16.7851L46.8622 17.0433L46.605 18.0762C45.8632 17.7982 45.395 17.312 44.8044 16.7851L45.0616 15.7522C43.7896 16.0535 43.1898 16.7287 42.2321 17.5598C42.8451 18.3754 43.3068 18.8166 44.29 19.1091C43.029 20.6882 39.8458 19.0716 38.8882 17.818C42.0727 16.4008 49.0047 11.5038 52.5213 13.4281ZM42.4894 14.7193C41.2683 15.6889 39.4417 16.8949 37.8592 16.7851C39.0734 15.6757 40.9113 15.1124 42.4894 14.7193ZM52.5213 16.5269C51.5829 16.5269 51.8203 16.1218 51.2351 16.2686C51.4746 15.1524 52.343 15.641 52.5213 16.5269ZM23.4545 25.5648C25.9408 22.6306 29.9191 20.5701 33.2291 18.7045C33.6831 18.4486 36.2961 16.7367 36.6858 17.5081C37.087 18.3021 34.2413 19.8671 33.7436 20.2394C30.0529 23.0001 28.0277 24.8255 23.4545 25.5648ZM50.7207 18.8509C49.6591 19.1903 48.7639 18.3921 47.6339 18.5927C48.394 20.7007 46.4815 21.1703 44.8044 21.175C47.1426 19.5054 47.6892 17.1864 50.7207 18.8509ZM30.3996 24.5319C31.9036 22.4696 34.1747 20.8952 36.3159 19.5442C37.2553 18.9516 38.7719 18.5251 39.0945 20.0844C39.2992 21.073 37.9642 21.1196 37.342 21.3237C35.0436 22.0778 32.6396 24.3017 30.3996 24.5319ZM30.1424 24.7902C29.8288 25.4922 29.6063 25.6645 28.8563 25.8231C29.2768 25.3225 29.5623 25.0859 30.1424 24.7902ZM26.0267 26.856C25.6244 27.3887 25.2713 27.7432 24.7406 28.1471C24.7406 27.5542 24.516 27.6317 23.9689 27.3724C24.6326 27.0964 25.3199 26.9897 26.0267 26.856ZM106.539 32.537C104.313 35.1002 103.399 34.4456 100.911 33.5084C99.8189 33.0971 98.273 32.962 97.7477 31.6172C97.2759 30.4102 97.714 28.2225 97.5362 26.856C101.743 26.9136 103.923 29.516 106.539 32.537ZM27.5701 27.1142C27.4461 27.7247 27.4065 27.7644 26.7984 27.8889L27.5701 27.1142ZM26.284 28.4053V28.9218H25.7695C25.9097 28.4996 25.8634 28.5461 26.284 28.4053ZM20.6249 29.9547C20.0379 30.8732 19.4296 31.6125 18.5671 32.2788C18.5141 30.9011 19.3218 30.2052 20.6249 29.9547ZM19.596 34.861C18.6276 35.8903 18.3652 36.7022 17.7954 37.9598C15.4397 38.7174 14.5286 43.8334 10.8503 42.3496C10.5663 44.3579 8.5779 45.8902 7.76352 47.7724C5.95957 46.3604 10.2643 40.8222 11.1075 39.2509C11.4149 39.4053 11.3588 39.3713 11.6219 39.7674L12.6509 38.218C13.0053 39.1703 12.9135 40.0891 12.6509 41.0585C14.4677 39.5949 15.2489 37.2737 15.9349 35.1193C16.1222 34.5313 16.7004 33.1668 17.4705 33.1658C17.7599 33.1653 18.6011 34.7004 19.596 34.861ZM107.311 33.5699C110.061 36.6234 107.722 39.0417 107.148 42.6079C106.816 44.6665 107.204 46.7522 107.311 48.8053C105.016 46.0805 105.362 42.957 104.588 39.7674C104.339 38.7386 103.072 37.3263 103.549 36.249C104.065 35.0847 106.248 34.1747 107.311 33.5699ZM11.3647 41.3167C11.1111 41.6987 11.1075 41.6274 11.1075 42.0914C11.3858 41.734 11.4138 41.7459 11.3647 41.3167ZM26.0267 45.1902C25.7693 45.687 25.7497 45.7319 25.2551 45.9648C25.3037 46.7251 25.1288 47.1171 24.7406 47.7724C25.9699 48.2119 29.4559 50.4787 26.7583 51.5898C24.5798 52.4872 18.2556 50.5174 17.7954 54.7446C15.0382 53.8382 17.3106 53.0777 18.8243 52.6788C16.8926 48.3279 22.7293 45.7061 26.0267 45.1902ZM104.739 45.7066C105.741 48.6057 107.279 52.2875 103.71 54.2281C102.157 50.724 100.304 48.0658 104.224 45.7066H104.739ZM97.5362 50.8712C98.4381 49.9774 99.1393 49.893 100.366 50.0965C100.314 51.8971 101.705 53.0227 102.166 54.7446C100.929 55.1766 99.3819 56.4311 98.0767 56.4014C95.8265 56.3502 97.9797 53.6621 98.8224 53.1952C97.5594 52.6762 96.5215 53.1196 95.2212 52.937L94.4495 50.6129H95.4784C95.6184 49.7796 95.9381 49.0711 96.2501 48.2889C97.5131 48.7449 97.4128 49.6668 97.5362 50.8712ZM6.7346 48.5471C6.48098 49.2335 6.24072 49.5994 5.70569 50.0965L6.22015 48.5471H6.7346ZM11.8792 51.1294C11.2611 50.8552 10.9699 50.6561 10.593 50.0965C11.2286 50.357 11.49 50.5621 11.8792 51.1294ZM5.70569 50.6129C6.08304 52.1716 5.73579 53.8416 4.16232 54.4864C4.48231 53.1472 4.82494 51.6872 5.70569 50.6129ZM9.56412 61.975C7.90525 61.5404 8.51643 60.0026 8.5352 58.618C6.74772 59.1525 4.53298 61.3405 2.87618 61.2003C2.79026 61.9344 2.61072 62.5702 2.36172 63.2661C2.01883 62.2371 2.35889 61.1951 2.61895 60.1674C3.4979 59.959 4.02393 59.451 4.4054 58.6105C5.14751 56.9762 5.56113 54.7405 6.87968 53.4367C8.73635 51.6009 11.0234 52.8314 10.7129 55.5262C10.6139 56.3872 10.3548 57.2561 10.1673 58.1015C9.88308 59.3831 9.6328 60.6621 9.56412 61.975ZM10.8503 51.9041C11.3014 52.4616 11.3989 52.6994 10.8503 53.1952C10.7816 52.7074 10.7523 52.3784 10.8503 51.9041ZM15.7376 56.5522C15.4835 55.9368 15.3181 55.4031 15.2231 54.7446C18.2829 56.0504 20.7489 57.5079 23.9689 58.618C23.4043 60.62 22.9878 62.1103 20.8822 62.7496C20.2797 62.4741 14.8064 61.5856 14.1909 61.836C13.1756 62.2487 13.3708 64.2373 12.114 63.8954C9.1811 63.0977 10.8575 55.8059 12.6509 54.4864C12.453 53.9676 12.4047 53.7471 12.3936 53.1952C13.8714 53.8645 14.1356 55.7181 15.7376 56.5522ZM23.9689 57.3269C23.4359 57.2171 23.1324 57.1105 22.6828 56.8104C23.4285 56.547 23.7909 56.4933 23.9689 57.3269ZM33.4864 62.2332C33.0596 62.338 32.9097 62.313 32.4575 62.2332C32.9228 62.085 32.9897 62.1131 33.4864 62.2332ZM34.0008 62.4914C36.3431 63.2625 37.3008 65.7495 39.9171 66.1066C39.915 68.9368 36.908 70.6269 36.8303 67.1395L36.3159 68.1724C35.2813 66.816 33.1569 64.2058 34.0008 62.4914ZM21.6539 63.7826L22.4255 65.5902L22.94 64.299C24.4646 66.7945 24.9978 68.6215 24.9978 71.5294C23.5496 70.3524 21.1803 65.655 21.6539 63.7826ZM54.8363 69.98C54.5078 70.4699 54.3674 70.5634 53.8074 70.7547C55.9481 73.2711 55.5877 70.8882 57.4086 70.4965C57.2733 73.5864 58.4375 76.4344 58.4375 79.5345C52.5887 79.5345 46.7678 79.0113 40.946 78.5015V75.4028C42.2836 74.9321 44.7877 72.0224 44.0358 70.5223C42.9573 68.37 41.1093 68.6034 40.946 65.5902C42.8662 66.3532 43.7871 67.3492 46.0906 67.5744C47.4796 67.7099 49.1277 66.9293 50.4537 67.3541C52.1864 67.9093 52.7885 69.7789 54.8363 69.98ZM74.3857 69.4636C77.7142 71.619 77.2152 75.5614 77.2152 79.018C74.2483 79.018 71.16 79.129 68.2122 79.4557C67.439 79.5414 65.4532 79.8854 65.0789 78.9186C64.6761 77.8787 66.212 77.103 66.8152 76.5617C68.7699 74.8071 70.2237 72.5783 72.0706 70.7547C73.0085 71.1067 73.7207 70.8058 74.6429 70.4965C74.3571 70.0596 74.2794 69.9604 74.3857 69.4636ZM26.284 69.7218C26.7917 72.4324 28.6291 74.1798 29.6279 76.6939C26.0177 76.1994 25.0233 73.1082 26.284 69.7218ZM78.7586 75.661V76.4357C78.5795 76.0344 78.5795 76.0623 78.7586 75.661ZM39.9171 76.6939V78.2433H38.1165C38.3387 77.1288 38.8087 76.8109 39.9171 76.6939ZM78.5013 76.9522C79.0531 77.5319 79.3103 77.9892 79.5303 78.7598H78.2441C78.2529 78.1067 78.2716 77.5616 78.5013 76.9522ZM41.2032 95.8028C37.4243 95.4718 33.5489 95.0178 29.8852 93.9952C32.7543 90.0151 37.3098 87.3807 37.3448 81.8585C36.0563 82.3192 32.2445 83.6782 31.1008 82.6993C29.6171 81.4291 29.5464 79.0547 27.3129 78.5015L27.0557 77.4686C27.922 77.5149 29.0476 77.5192 29.7169 78.1633C30.3327 78.7562 30.3127 80.0917 31.2451 80.3365C33.8156 81.0115 36.3722 77.9061 39.2966 79.4606C40.2782 79.9825 40.1349 82.6807 40.1676 83.6661C40.3011 87.7208 41.1482 91.7507 41.2032 95.8028ZM58.4375 80.5674V96.8357C54.5503 96.8357 50.7302 96.7286 46.8622 96.3699C45.7147 96.2637 43.6713 96.5855 42.7345 95.7669C41.9098 95.0459 41.9191 92.7038 41.7969 91.6712C41.3257 87.6859 40.9465 83.5465 40.946 79.5345C46.7946 79.8417 52.5614 80.5674 58.4375 80.5674ZM80.3019 86.7648L82.3598 86.5066C80.4264 89.0925 85.6003 91.1493 88.0188 91.9294L87.5043 90.38C88.3285 90.5781 89.7584 90.5665 90.3912 91.1779C91.2722 92.0296 90.2397 94.2875 89.2648 94.6423C85.6116 95.9725 80.5535 96.0605 76.7007 96.061C77.6841 90.7914 78.2441 85.1512 78.2441 79.7927C80.659 79.9184 80.1064 84.6561 80.3019 86.7648ZM77.2152 80.0509C77.2041 85.5096 76.1436 90.8973 75.6718 96.3193C70.3467 96.4716 65.0686 96.8357 59.7237 96.8357V80.5674C60.562 81.4237 61.6776 85.0835 62.7983 85.1535C64.9048 85.2852 64.3991 81.4327 65.7588 80.7525C68.3676 79.4474 74.2761 80.0512 77.2152 80.0509ZM11.6219 102.517C5.15702 100.545 2.68943 91.1692 2.36172 84.9572C4.05788 85.2669 7.58114 86.4118 8.35077 88.1249C8.87372 89.2893 8.34434 90.7059 8.83076 91.9294C10.3721 95.8062 11.7434 98.2369 11.6219 102.517ZM98.5652 92.7041C96.7684 93.862 93.4792 94.1917 91.3628 94.2534C91.7296 90.1365 95.6387 91.6177 98.5652 92.7041ZM85.961 109.747C86.9636 106.427 88.552 103.243 89.6478 99.9345C90.0378 98.7572 90.2106 96.6596 91.0909 95.7617C91.8554 94.9822 93.6837 94.9674 94.7067 94.7918C98.3421 94.168 100.028 93.8472 103.195 95.9748C103.913 96.4569 105.266 97.0537 105.516 97.9637C105.842 99.1476 104.511 101.212 104.021 102.258C101.022 108.653 92.27 108.511 85.961 109.747ZM44.5472 111.296C41.8293 110.94 35.7762 111.396 33.6713 109.53C31.8483 107.914 30.867 103.512 30.1812 101.226C29.8211 100.025 28.1283 96.6191 28.9252 95.4743C29.6323 94.4585 33.9291 95.8635 35.0297 96.0257C36.5237 96.2457 40.1216 96.2191 41.2786 97.1327C42.1256 97.8012 42.13 99.9724 42.2962 100.967C42.8762 104.442 44.0471 107.819 44.5472 111.296ZM89.8194 95.8028C88.8651 99.2243 87.7917 102.573 86.4754 105.874C86.0021 107.061 85.5502 108.916 84.495 109.724C82.3531 111.363 76.2671 111.221 73.614 111.296C74.0459 106.634 75.8251 102.034 76.4435 97.3522C80.8761 96.9641 85.3799 95.8637 89.8194 95.8028ZM58.4375 97.8686V112.071C55.3081 112.071 52.0256 112.043 48.9201 111.666C48.0571 111.562 46.7231 111.786 45.9874 111.258C45.0899 110.613 44.8952 108.687 44.6449 107.681C43.7943 104.266 42.8466 100.625 42.7466 97.0939C47.9565 97.7767 53.1883 97.8686 58.4375 97.8686ZM28.0846 97.3522L29.3707 102C28.2278 101.249 27.443 98.5816 28.0846 97.3522ZM75.4146 97.3522C75.2322 100.808 74.2224 104.335 73.3892 107.681C73.1368 108.694 73.0147 110.584 72.1262 111.258C71.3607 111.839 69.8914 111.533 68.9839 111.633C65.963 111.968 62.7621 112.03 59.7237 112.071V98.1269C64.7857 98.0977 70.4313 98.2604 75.4146 97.3522ZM112.97 101.742V102.258C109.919 103.529 106.735 105.085 103.452 105.615C104.442 103.274 105.809 101.092 106.539 98.6433C108.811 99.3576 110.702 100.95 112.97 101.742ZM8.27797 102C9.66341 102.847 11.3856 103.505 12.3563 104.859C15.4863 109.226 16.7483 118.91 23.9689 116.977C29.2938 124.322 38.0936 130.311 46.605 133.246C44.0152 133.885 39.6917 131.415 37.3448 130.372C28.1872 126.301 20.3891 119.937 14.196 112.071C12.4438 109.846 8.05753 104.967 8.27797 102ZM29.6279 102.517C30.4151 104.818 31.7303 107.113 32.2002 109.489C30.4696 109.15 28.7143 108.806 27.0557 108.198C29.3756 105.948 28.6129 105.245 29.6279 102.517ZM114.256 102.775C112.764 107.558 108.618 112.348 105.266 115.945C95.0905 126.862 80.1376 135.303 64.8682 135.312C67.3502 134.194 70.2677 133.847 72.8423 132.875C78.0342 130.916 82.8601 128.15 87.2471 124.75C91.3939 121.537 94.9943 117.775 98.1958 113.621C99.6579 111.724 100.768 108.922 102.571 107.367C105.238 105.068 110.959 104.174 114.256 102.775ZM100.88 107.681C99.5092 111.114 96.6522 114.26 94.2149 116.977C87.03 124.987 75.9481 132.986 64.8682 134.021C68.9841 129.959 73.9991 127.339 77.7271 122.659C79.5598 120.357 81.3219 117.979 82.7991 115.428C83.5654 114.105 84.2697 111.949 85.5574 111.061C86.9022 110.134 89.2764 110.179 90.8483 109.894C94.1812 109.29 97.5257 108.022 100.88 107.681ZM53.0357 133.762C50.8104 134.312 47.3728 132.577 45.3189 131.748C39.5997 129.439 34.5171 126.045 29.8852 121.995C28.1952 120.517 25.7042 118.548 24.7514 116.461C23.802 114.382 25.8438 113.516 26.2294 112.018C26.4458 111.178 25.904 110.07 25.7695 109.231C27.6908 109.41 31.3367 109.74 32.8562 110.991C35.5717 113.227 37.2535 118.47 39.4368 121.367C43.1996 126.36 47.7227 130.491 53.0357 133.762ZM56.8942 134.279C54.629 134.508 51.4412 131.738 49.6918 130.466C43.1751 125.728 37.4101 118.496 34.258 111.038C36.5163 111.158 43.225 111.241 44.8605 112.773C46.3946 114.21 46.9291 118.122 47.7451 120.076C49.8433 125.101 52.5637 130.813 56.8942 134.279ZM83.9031 111.296C79.8989 120.759 70.8676 131.095 61.0098 134.537C64.2571 130.059 67.6036 126.301 69.8286 121.109C70.6939 119.09 71.5932 113.92 73.3007 112.626C75.1962 111.189 81.5299 111.301 83.9031 111.296ZM58.4375 113.104V134.537C52.0763 129.888 47.7188 120.157 46.0906 112.588C50.2083 112.596 54.3106 113.104 58.4375 113.104ZM72.0706 112.588C69.6252 120.094 66.3419 129.442 59.7237 134.279V113.104C63.8465 113.104 67.9498 112.588 72.0706 112.588ZM47.1195 133.59C47.3183 133.59 47.1606 133.719 47.0338 133.676L47.1195 133.59ZM47.8912 163.2H63.3249C63.3274 158.738 62.8912 151.319 67.4405 148.798C70.6798 147.002 75.9535 147.965 79.5303 147.965V146.415C68.3938 146.415 53.7544 144.125 49.0366 157.261C48.3598 159.145 47.948 161.199 47.8912 163.2ZM0.818349 146.932V181.793H14.4515V146.932H0.818349ZM115.285 146.932V148.481C118.457 148.481 123.497 147.499 125.992 149.907C127.634 151.492 127.951 153.824 128.222 155.97C128.871 161.105 128.928 167.356 128.292 172.496C128.021 174.692 127.752 177.256 126.03 178.85C123.511 181.182 118.432 180.243 115.285 180.243V181.793C121.654 181.793 129.301 182.934 135.092 179.711C145.445 173.95 146.259 156.92 136.635 150.049C130.561 145.713 122.321 146.932 115.285 146.932ZM199.656 181.793V180.243C196.613 180.243 191.565 181.145 189.147 178.882C187.003 176.876 186.91 173.663 186.779 170.947C186.542 166.008 186.65 161.167 186.801 156.228C186.871 153.978 187.59 151.119 189.385 149.632C191.883 147.564 196.624 148.481 199.656 148.481V146.932C193.157 146.932 185.073 145.709 179.335 149.442C169.293 155.975 168.976 173.242 179.592 179.493C185.457 182.947 193.148 181.793 199.656 181.793ZM63.5821 165.008C63.5821 169.496 64.405 176.902 59.7211 179.478C56.4674 181.267 50.99 180.243 47.3767 180.243V181.793C58.633 181.793 73.3053 184.254 78.0597 170.947C78.7436 169.033 79.0117 167.032 79.0158 165.008H63.5821ZM30.9141 168.258C25.6165 169.527 27.4389 177.884 32.7147 176.698C38.2649 175.449 36.399 166.945 30.9141 168.258ZM98.0507 168.259C92.9941 169.509 94.7139 177.846 99.8513 176.734C105.522 175.507 103.665 166.87 98.0507 168.259ZM155.927 168.259C150.871 169.509 152.59 177.846 157.728 176.734C163.398 175.507 161.542 166.87 155.927 168.259Z" fill="#A4A4A4"/>
</g>
<defs>
<clipPath id="clip0_817_383">
<rect width="202" height="204" fill="white"/>
</clipPath>
</defs>
</svg>
