<svg width="71" height="60" viewBox="0 0 71 60" fill="none" xmlns="http://www.w3.org/2000/svg">
<path d="M38.0673 8.23505C36.2299 5.99793 34.0247 4.15689 31.4672 2.78187C29.3085 1.62125 27.0006 0.951103 24.5959 0.539527C22.447 0.171729 20.143 0.215885 17.9958 0.573455C3.83921 2.93093 -3.79139 18.6728 1.89119 31.4224C7.42947 43.8481 23.6275 48.0885 34.4508 39.7496C36.7094 38.0094 39.5595 35.3103 40.418 32.5009C41.8955 33.0138 43.0284 34.3809 44.2153 35.3538C45.9988 36.8156 47.9061 38.1377 49.7304 39.5498C50.8474 40.4144 52.0595 41.6073 53.3469 42.1982C54.6133 42.7794 56.9207 42.5274 58.3196 42.5691C59.3776 42.6007 60.8326 43.0596 61.8456 42.6486C62.9043 42.2192 63.8142 40.5286 64.1973 39.511C64.4982 38.7114 64.5481 37.8665 65.3718 37.4367C66.3756 36.9128 67.0236 37.4433 67.9937 37.6238C68.3319 37.6868 68.6444 37.488 68.9882 37.5579C69.3474 37.6308 70.2974 38.0916 70.5841 37.6491C70.7881 37.334 70.3919 36.3405 70.2809 36.0059C70.0736 35.381 69.3308 35.2258 69.2594 34.568C68.2753 34.4649 68.4862 32.551 68.4457 31.7819C67.9417 31.7165 67.5024 31.691 66.9991 31.7819C66.996 31.2415 66.8557 30.6976 66.9788 30.1642C67.1236 29.5359 67.6424 28.658 67.459 28.0072C67.2212 27.1637 66.163 26.323 65.6984 25.5533C65.4822 25.1952 65.4554 24.8222 65.0715 24.5727C64.5435 24.2296 63.9414 24.5033 63.3826 24.1053C62.2803 23.32 61.2014 22.207 59.7662 22.1654C60.0021 20.9641 59.3303 19.8418 58.4086 18.9943C58.1425 18.7496 57.7595 18.8448 57.4971 18.5511C57.1581 18.1716 56.4482 17.3398 57.1442 17.0427C57.0537 16.3534 56.9487 15.7363 56.7826 15.0654L57.6867 14.9756C57.6756 14.5948 57.4537 14.1008 57.5301 13.7386C57.6535 13.1531 58.8335 12.3081 59.4045 12.2794C59.4054 11.8606 59.5677 11.3257 59.428 10.9313C59.2773 10.5054 58.5914 9.9582 58.6826 9.50146C58.7774 9.02567 60.6739 8.49111 59.7802 7.70426C59.2297 7.2194 58.2076 7.62589 57.6016 7.63129C57.25 7.63434 55.9403 6.72626 55.7242 6.41916C55.4292 5.99972 55.5057 5.4425 55.248 5.00878C55.0571 4.68748 54.629 4.77044 54.4729 4.50296C54.2258 4.07941 54.1604 3.4721 53.8887 2.98965C53.5553 2.39776 54.0787 1.75258 53.1661 1.58442L53.2565 0.955309C52.8914 0.952487 52.4279 0.789753 52.0811 0.896361C51.8434 0.969491 51.499 1.37755 51.239 1.27669C50.64 1.04424 50.6426 0.298766 49.7332 0.258026C49.1055 0.229905 48.8178 0.842661 48.103 0.720775C46.904 0.516349 45.6002 -0.350471 44.312 0.157152C43.8531 0.337995 43.7204 0.875357 43.3683 1.17841C43.086 1.42143 42.6475 1.36151 42.3865 1.60469C41.7846 2.1655 41.396 3.19458 40.689 3.8175C40.0685 4.36413 39.2554 4.18725 38.6162 4.62372C37.5179 5.37364 37.6314 7.1892 38.0673 8.23505ZM50.725 1.76417C51.6051 1.70695 52.1144 1.12214 53.0757 1.13506C53.0533 1.92462 53.8327 2.18918 53.4373 3.11227C54.3952 3.50931 54.096 4.18199 54.3414 4.99961C55.3179 4.80096 55.4974 6.2254 55.6072 6.97683C56.3403 6.8874 56.889 7.28366 57.1442 7.96544C57.5612 7.84995 60.0427 7.32527 59.6975 8.32349C59.4904 8.92259 58.3972 8.88637 58.4396 9.58442C58.4688 10.0634 59.0197 10.5219 59.1885 10.9823C59.3123 11.3197 59.2046 11.7413 59.2237 12.0996C58.8568 12.1179 58.6649 12.1939 58.41 12.4591L58.0483 12.1895C58.0807 12.5089 58.0221 12.7761 57.9579 13.0882C57.0185 13.3772 57.4325 14.0766 57.5059 14.7958L56.6017 14.8857C56.5689 15.091 56.5159 15.2395 56.4209 15.4249C57.3269 15.9957 56.6707 16.8267 56.3305 17.492C56.8859 17.7203 57.0308 18.4186 57.4537 18.8104C57.6895 19.0289 58.0198 18.9783 58.2574 19.1747C59.3206 20.0531 59.7633 21.1688 59.4949 22.4351C60.9045 22.1887 62.0702 23.376 63.1114 24.1542C63.7605 24.6394 64.2797 24.3754 64.9006 24.7051C65.2969 24.9155 65.3058 25.3017 65.4977 25.6532C65.9422 26.4678 67.0102 27.2059 67.2322 28.0971C67.3858 28.7135 66.9416 29.4769 66.8094 30.0743C66.6705 30.7025 66.817 31.3266 66.8183 31.9616C67.2015 31.9508 67.8676 31.7343 68.1713 32.0473C68.823 32.7191 67.7861 34.6124 69.0786 34.7477V35.2869C70.0946 35.4265 70.4038 36.7396 70.4348 37.6237C68.7145 37.62 66.2583 36.255 64.7632 37.593C64.3368 37.9747 64.2505 38.7172 64.0784 39.2414C63.732 40.2959 62.6971 42.3382 61.484 42.5424C59.7512 42.8342 57.6275 42.3388 55.8785 42.2175C55.0805 42.1622 54.192 42.3481 53.4373 42.0155C52.4319 41.5723 51.5114 40.6496 50.6346 39.994C48.5789 38.457 46.4837 36.9321 44.4865 35.3214C43.0539 34.1658 41.8653 32.8792 40.1468 32.1417C38.0315 31.2338 36.2899 29.3819 34.1796 28.6008C32.6437 28.0324 30.3288 28.4542 28.959 27.5118C28.5361 27.2208 29.1392 26.7666 29.2973 26.4794C28.9993 26.5263 28.5502 26.7258 28.3231 26.4398C27.9269 25.9409 28.227 25.3981 28.2161 24.8616C28.1941 23.785 26.7351 21.63 27.4635 20.6714C27.8874 20.1134 28.8851 19.7948 29.4781 19.4304C31.2352 18.3505 33.0189 17.3249 34.8125 16.3073C35.4406 15.9509 36.374 15.9054 36.8402 15.3269C37.9158 13.9924 37.4735 12.7966 37.7674 11.2908C37.9222 10.4975 38.452 9.66207 38.4222 8.86417C38.375 7.59731 37.6075 6.67261 38.2761 5.35942C38.7303 4.4675 39.552 4.69001 40.3276 4.31253C40.92 4.0242 41.3737 3.41356 41.8017 2.93252C42.1343 2.55871 42.4721 2.29165 42.4071 1.76417C42.7972 1.624 43.2389 1.58596 43.5491 1.28813C43.8564 0.993173 44.0297 0.411835 44.4929 0.318439C45.9112 0.0324528 47.0506 0.867835 48.3743 0.944605C49.091 0.986171 49.5293 0.339946 50.2719 0.564207C50.8564 0.740727 51.0101 1.27995 50.725 1.76417ZM42.7687 1.94392C42.6421 2.80394 41.1304 4.28242 40.3276 4.59981C39.7234 4.83869 38.9368 4.74794 38.5575 5.36285C37.7871 6.61158 38.6607 7.64144 38.6971 8.86417C38.7223 9.71141 38.1936 10.5449 38.0266 11.3806C37.7214 12.9087 38.1174 14.0323 37.0982 15.4221C36.5878 16.1182 35.5437 16.2174 34.8125 16.6139C33.1221 17.5303 31.4901 18.5389 29.8398 19.5232C29.2351 19.8838 28.1734 20.2316 27.7351 20.7794C27.1087 21.5622 28.3543 23.8811 28.4992 24.7715C28.569 25.2003 28.2696 25.5993 28.4427 26.0108C28.6683 26.5468 30.2199 26.2242 29.0261 27.1983C30.3815 28.1359 32.6388 27.7783 34.1796 28.3296C35.5173 28.8081 36.6924 29.9463 37.8865 30.6977C39.0358 31.421 40.3369 31.8118 41.5029 32.4922C42.7235 33.2043 43.7548 34.3687 44.8482 35.2639C46.5725 36.6759 48.4218 37.9437 50.1825 39.312C51.1903 40.0953 52.3389 41.2696 53.5277 41.7517C54.2916 42.0615 55.1693 41.8925 55.9689 41.9479C57.6859 42.0669 59.4928 42.379 61.2128 42.2936C63.5444 42.1779 63.3073 38.5326 64.5718 37.4042C66.1263 36.0172 68.4 37.2373 70.1635 37.354C70.0475 36.9238 69.9223 36.1855 69.6383 35.8464C69.2275 35.3562 68.4205 35.2169 68.2117 34.4753C68.0654 33.9557 68.3533 32.5943 67.9173 32.245C67.6286 32.0137 66.9007 32.2292 66.5471 32.2313C66.5471 31.5621 66.3762 30.8189 66.5065 30.1642C66.6272 29.557 67.143 28.7151 66.9321 28.0971C66.5636 27.0168 65.1079 26.4618 65.1005 25.2211C64.5646 24.8384 64.0691 25.112 63.5635 24.8142C62.0196 23.9048 61.1503 22.6046 59.2237 22.7047C59.2066 22.3765 59.1709 22.2162 58.862 22.0756V21.8958C59.9087 21.5357 58.9163 19.928 58.2292 20.1882C58.129 19.208 56.9696 18.7662 56.4209 17.7616L55.9689 17.8515C56.1001 17.2118 56.771 16.6592 56.5648 15.9822C56.4705 15.6727 56.1162 15.4595 55.9689 15.1553C56.2777 15.0147 56.3134 14.8544 56.3305 14.5262C56.6035 14.5756 56.8668 14.6082 57.1442 14.6161C57.1196 14.2721 56.9097 13.8806 56.9885 13.543C57.1232 12.9665 57.7417 12.4481 57.9579 11.83L58.3196 12.0097C58.5355 11.8956 58.7087 11.8505 58.9525 11.83C58.9647 11.612 58.9937 11.4138 59.0429 11.2009L58.6812 11.0211C58.7771 10.4597 58.3358 10.297 58.1532 9.82537C58.0339 9.5171 58.2103 9.09703 58.2292 8.7743C58.7765 8.74257 59.3014 8.61441 59.4949 8.05531C58.9709 8.11211 57.7265 8.27541 57.2475 8.14222C56.399 7.9063 56.4186 7.19648 55.336 7.33632C55.3264 6.85083 55.1813 5.71069 54.8591 5.33576C54.6244 5.06269 54.2305 5.20505 54.0311 4.81517C53.6849 4.13872 54.1662 3.46276 53.0757 3.38189C53.2245 2.91849 53.3074 2.51951 53.3469 2.03379C52.9717 1.93144 52.7923 1.78915 52.714 1.40468C52.1064 1.37909 51.1299 2.41297 50.7341 2.26537C50.138 2.04309 50.8785 1.21485 50.3437 0.891067C49.7662 0.541442 49.4207 1.1325 48.9114 1.22921C48.0747 1.38807 47.3079 0.666339 46.566 0.865435C46.257 0.45013 45.7489 0.631261 45.3002 0.68346C45.0442 0.713244 44.7502 0.552658 44.5097 0.639592C43.8573 0.875465 43.5451 1.68697 42.7687 1.94392ZM18.3575 1.3148L17.1821 1.58442C17.3451 1.67138 17.4563 1.71744 17.6342 1.76417C17.3308 1.97412 16.9151 2.06804 16.5492 2.12366L17.0013 2.21354C16.6936 2.3271 16.4622 2.29904 16.1876 2.12366L16.0068 2.48316L16.3684 2.57303L16.278 2.93252C16.0173 2.83575 15.8527 2.66655 15.6451 2.48316L15.7355 2.12366C15.2884 2.22852 15.0776 2.46353 14.741 2.75278C14.9564 3.03665 15.1187 3.19021 15.4643 3.29202C15.0211 3.8416 13.9022 3.27896 13.5656 2.84265C14.6849 2.34941 17.1215 0.645057 18.3575 1.3148ZM14.8314 1.76417C14.4022 2.10163 13.7602 2.52137 13.204 2.48316C13.6307 2.09706 14.2767 1.90101 14.8314 1.76417ZM18.3575 2.39328C18.0277 2.39328 18.1111 2.25229 17.9054 2.30341C17.9896 1.91491 18.2948 2.08497 18.3575 2.39328ZM8.14092 5.53885C9.01484 4.51763 10.4132 3.8005 11.5766 3.15119C11.7362 3.06212 12.6546 2.46632 12.7915 2.73479C12.9326 3.01114 11.9323 3.55581 11.7574 3.6854C10.4602 4.64622 9.74835 5.28152 8.14092 5.53885ZM17.7246 3.20214C17.3515 3.32025 17.0368 3.04247 16.6396 3.11227C16.9068 3.84593 16.2346 4.00937 15.6451 4.011C16.467 3.42993 16.6591 2.62284 17.7246 3.20214ZM10.582 5.17936C11.1107 4.4616 11.9089 3.91364 12.6615 3.44345C12.9917 3.23718 13.5248 3.08875 13.6381 3.63144C13.7101 3.97552 13.2409 3.99173 13.0222 4.06276C12.2143 4.32523 11.3694 5.09924 10.582 5.17936ZM10.4916 5.26923C10.3814 5.51356 10.3032 5.57354 10.0396 5.62873C10.1874 5.45451 10.2878 5.37216 10.4916 5.26923ZM9.04504 5.98822C8.90363 6.17363 8.7795 6.29702 8.59298 6.43759C8.59298 6.23124 8.51405 6.2582 8.32174 6.16797C8.55501 6.07189 8.79659 6.03477 9.04504 5.98822ZM37.344 7.96544C36.5617 8.85752 36.2402 8.62969 35.3658 8.30354C34.9819 8.16037 34.4385 8.11337 34.2539 7.64531C34.0881 7.22524 34.242 6.46383 34.1796 5.98822C35.6583 6.00826 36.4243 6.91401 37.344 7.96544ZM9.58751 6.07809C9.54393 6.29055 9.53001 6.30439 9.31627 6.34771L9.58751 6.07809ZM9.13545 6.52746V6.70721H8.95463C9.0039 6.56026 8.98763 6.57644 9.13545 6.52746ZM7.14639 7.0667C6.94007 7.38638 6.72624 7.64369 6.42309 7.87556C6.40447 7.39609 6.68836 7.15388 7.14639 7.0667ZM6.78474 8.7743C6.44434 9.13253 6.35212 9.41509 6.15185 9.85278C5.32386 10.1165 5.00362 11.897 3.71073 11.3806C3.61092 12.0796 2.91203 12.6129 2.62579 13.268C1.99173 12.7765 3.50477 10.849 3.80114 10.3021C3.90919 10.3559 3.88948 10.344 3.98197 10.4819L4.34362 9.94265C4.4682 10.2741 4.43593 10.5939 4.34362 10.9313C4.98219 10.4219 5.25678 9.61398 5.4979 8.86417C5.56372 8.65953 5.76697 8.18464 6.03766 8.18428C6.13938 8.1841 6.43502 8.7184 6.78474 8.7743ZM37.6152 8.32493C38.582 9.38768 37.7597 10.2293 37.5578 11.4705C37.4413 12.187 37.5776 12.9129 37.6152 13.6275C36.8086 12.6791 36.9302 11.592 36.6582 10.4819C36.5705 10.1238 36.1253 9.63232 36.2931 9.25737C36.4745 8.85213 37.2416 8.53541 37.6152 8.32493ZM3.89156 11.0211C3.80241 11.1541 3.80114 11.1292 3.80114 11.2908C3.89897 11.1664 3.90882 11.1705 3.89156 11.0211ZM9.04504 12.3692C8.95454 12.5421 8.94767 12.5578 8.7738 12.6389C8.79089 12.9034 8.72941 13.0399 8.59298 13.268C9.02506 13.4209 10.2503 14.2098 9.30217 14.5966C8.53647 14.9089 6.3136 14.2233 6.15185 15.6945C5.18273 15.3791 5.98143 15.1144 6.5135 14.9756C5.83451 13.4613 7.88605 12.5488 9.04504 12.3692ZM36.7111 12.549C37.0635 13.558 37.604 14.8394 36.3495 15.5148C35.8036 14.2952 35.1524 13.3701 36.5303 12.549H36.7111ZM34.1796 14.3464C34.4966 14.0354 34.743 14.006 35.1741 14.0768C35.1559 14.7035 35.645 15.0953 35.807 15.6945C35.3719 15.8449 34.8283 16.2815 34.3695 16.2712C33.5786 16.2534 34.3354 15.3178 34.6316 15.1553C34.1877 14.9747 33.8229 15.129 33.3659 15.0654L33.0946 14.2566H33.4563C33.5055 13.9666 33.6178 13.7199 33.7275 13.4477C34.1714 13.6064 34.1362 13.9273 34.1796 14.3464ZM2.26414 13.5376C2.17499 13.7765 2.09055 13.9038 1.90249 14.0768L2.08331 13.5376H2.26414ZM4.07238 14.4363C3.85512 14.3409 3.75277 14.2716 3.62032 14.0768C3.84373 14.1675 3.93559 14.2389 4.07238 14.4363ZM1.90249 14.2566C2.03513 14.7991 1.91307 15.3803 1.36002 15.6047C1.47249 15.1386 1.59292 14.6304 1.90249 14.2566ZM3.25867 18.211C2.6756 18.0597 2.89042 17.5246 2.89702 17.0427C2.26875 17.2287 1.4903 17.9902 0.907959 17.9414C0.877761 18.1969 0.814654 18.4182 0.727135 18.6604C0.606616 18.3022 0.726141 17.9396 0.817547 17.5819C1.12648 17.5094 1.31138 17.3326 1.44546 17.04C1.7063 16.4712 1.85168 15.6931 2.31513 15.2393C2.96772 14.6004 3.77158 15.0287 3.66245 15.9666C3.62764 16.2662 3.5366 16.5687 3.47069 16.8629C3.37078 17.3089 3.28281 17.7541 3.25867 18.211ZM3.71073 14.7059C3.86931 14.9 3.90358 14.9828 3.71073 15.1553C3.68659 14.9855 3.67628 14.871 3.71073 14.7059ZM5.42856 16.3237C5.33923 16.1095 5.2811 15.9237 5.24774 15.6945C6.32319 16.149 7.18997 16.6563 8.32174 17.0427C8.12329 17.7394 7.97691 18.2581 7.2368 18.4806C7.02505 18.3847 5.10127 18.0755 4.88491 18.1627C4.52806 18.3063 4.59668 18.9984 4.15492 18.8794C3.12405 18.6018 3.71326 16.0639 4.34362 15.6047C4.27409 15.4241 4.25709 15.3474 4.2532 15.1553C4.77262 15.3883 4.86547 16.0334 5.42856 16.3237ZM8.32174 16.5933C8.13441 16.5551 8.02772 16.518 7.86968 16.4135C8.13179 16.3219 8.25918 16.3032 8.32174 16.5933ZM11.667 18.3009C11.517 18.3374 11.4643 18.3286 11.3053 18.3009C11.4689 18.2493 11.4924 18.2591 11.667 18.3009ZM11.8478 18.3908C12.6711 18.6591 13.0077 19.5247 13.9273 19.649C13.9266 20.634 12.8696 21.2222 12.8423 20.0085L12.6615 20.368C12.2979 19.8959 11.5512 18.9874 11.8478 18.3908ZM7.50803 18.8401L7.77927 19.4692L7.96009 19.0199C8.49597 19.8884 8.68339 20.5243 8.68339 21.5363C8.17437 21.1267 7.34159 19.4918 7.50803 18.8401ZM19.1712 20.9971C19.0557 21.1676 19.0064 21.2001 18.8095 21.2667C19.5619 22.1425 19.4353 21.3132 20.0753 21.1768C20.0277 22.2523 20.4369 23.2435 20.4369 24.3224C18.3812 24.3224 16.3352 24.1403 14.2889 23.9629V22.8844C14.7591 22.7206 15.6392 21.7079 15.375 21.1858C14.9959 20.4367 14.3463 20.518 14.2889 19.4692C14.9639 19.7348 15.2875 20.0814 16.0972 20.1598C16.5854 20.207 17.1647 19.9353 17.6307 20.0832C18.2398 20.2764 18.4514 20.9271 19.1712 20.9971ZM26.0425 20.8173C27.2124 21.5675 27.037 22.9396 27.037 24.1426C25.9942 24.1426 24.9087 24.1813 23.8726 24.295C23.6008 24.3248 22.9028 24.4445 22.7713 24.108C22.6297 23.7461 23.1696 23.4761 23.3816 23.2878C24.0686 22.6771 24.5796 21.9014 25.2288 21.2667C25.5584 21.3892 25.8088 21.2845 26.1329 21.1768C26.0325 21.0248 26.0052 20.9902 26.0425 20.8173ZM9.13545 20.9072C9.31392 21.8506 9.95974 22.4588 10.3108 23.3338C9.04187 23.1617 8.69234 22.0858 9.13545 20.9072ZM27.5795 22.9743V23.2439C27.5166 23.1042 27.5166 23.114 27.5795 22.9743ZM13.9273 23.3338V23.873H13.2944C13.3725 23.4851 13.5377 23.3745 13.9273 23.3338ZM27.4891 23.4237C27.683 23.6254 27.7734 23.7846 27.8507 24.0528H27.3987C27.4017 23.8255 27.4083 23.6358 27.4891 23.4237ZM14.3793 29.9844C13.0511 29.8692 11.689 29.7112 10.4012 29.3553C11.4097 27.9701 13.0109 27.0532 13.0232 25.1313C12.5703 25.2916 11.2305 25.7646 10.8285 25.4239C10.307 24.9818 10.2821 24.1554 9.4971 23.9629L9.40669 23.6034C9.71119 23.6195 10.1068 23.621 10.3421 23.8452C10.5585 24.0515 10.5515 24.5163 10.8792 24.6015C11.7827 24.8365 12.6813 23.7557 13.7092 24.2967C14.0542 24.4783 14.0039 25.4174 14.0153 25.7604C14.0623 27.1716 14.36 28.5741 14.3793 29.9844ZM20.4369 24.6819V30.3439C19.0706 30.3439 17.7279 30.3066 16.3684 30.1818C15.9651 30.1448 15.2469 30.2568 14.9176 29.9719C14.6277 29.721 14.631 28.9058 14.588 28.5464C14.4224 27.1594 14.2891 25.7188 14.2889 24.3224C16.3446 24.4293 18.3716 24.6819 20.4369 24.6819ZM28.122 26.8389L28.8453 26.749C28.1657 27.649 29.9843 28.3648 30.8343 28.6363L30.6535 28.0971C30.9432 28.166 31.4458 28.162 31.6682 28.3748C31.9779 28.6712 31.6149 29.457 31.2723 29.5805C29.9883 30.0435 28.2104 30.0741 26.8562 30.0743C27.2018 28.2402 27.3987 26.2772 27.3987 24.4123C28.2475 24.456 28.0533 26.1049 28.122 26.8389ZM27.037 24.5021C27.0331 26.402 26.6604 28.2771 26.4946 30.1642C24.6228 30.2172 22.7677 30.3439 20.889 30.3439V24.6819C21.1837 24.9799 21.5758 26.2537 21.9697 26.278C22.7101 26.3239 22.5323 24.9831 23.0103 24.7463C23.9272 24.2921 26.004 24.5022 27.037 24.5021ZM3.98197 32.3211C1.70964 31.635 0.84232 28.3717 0.727135 26.2097C1.32331 26.3175 2.56169 26.716 2.8322 27.3122C3.01601 27.7175 2.82994 28.2105 3.00091 28.6363C3.54266 29.9856 4.02464 30.8316 3.98197 32.3211ZM34.5412 28.9059C33.9097 29.3089 32.7536 29.4237 32.0097 29.4452C32.1386 28.0123 33.5126 28.5278 34.5412 28.9059ZM30.111 34.8376C30.4635 33.6821 31.0218 32.5739 31.4069 31.4224C31.544 31.0127 31.6047 30.2826 31.9141 29.9701C32.1828 29.6988 32.8255 29.6937 33.185 29.6326C34.4628 29.4154 35.0554 29.3038 36.1686 30.0443C36.4209 30.2121 36.8965 30.4198 36.9844 30.7365C37.0989 31.1486 36.6312 31.8672 36.4588 32.2313C35.4047 34.4569 32.3286 34.4073 30.111 34.8376ZM15.5547 35.3768C14.5994 35.2528 12.4718 35.4114 11.732 34.762C11.0912 34.1996 10.7463 32.6677 10.5053 31.8718C10.3787 31.4538 9.7837 30.2685 10.0638 29.8701C10.3123 29.5165 11.8226 30.0055 12.2095 30.062C12.7346 30.1386 13.9992 30.1293 14.4058 30.4473C14.7036 30.68 14.7051 31.4356 14.7635 31.7819C14.9674 32.9912 15.3789 34.1666 15.5547 35.3768ZM31.4672 29.9844C31.1318 31.1752 30.7545 32.3406 30.2919 33.4895C30.1255 33.9025 29.9666 34.5484 29.5958 34.8295C28.8429 35.4001 26.7038 35.3504 25.7713 35.3768C25.9231 33.754 26.5484 32.1532 26.7658 30.5237C28.3238 30.3886 29.9068 30.0056 31.4672 29.9844ZM20.4369 30.7034V35.6464C19.337 35.6464 18.1832 35.6367 17.0917 35.5055C16.7884 35.4691 16.3195 35.5472 16.0609 35.3633C15.7455 35.139 15.677 34.4685 15.5891 34.1186C15.2901 32.93 14.957 31.6626 14.9218 30.4338C16.753 30.6714 18.5919 30.7034 20.4369 30.7034ZM9.76833 30.5237L10.2204 32.1414C9.81869 31.8799 9.54285 30.9515 9.76833 30.5237ZM26.4041 30.5237C26.34 31.7264 25.9851 32.9538 25.6922 34.1186C25.6035 34.471 25.5606 35.1288 25.2483 35.3633C24.9792 35.5655 24.4628 35.4591 24.1438 35.4941C23.082 35.6106 21.957 35.632 20.889 35.6464V30.7933C22.6682 30.7831 24.6526 30.8397 26.4041 30.5237ZM39.6043 32.0515V32.2313C38.5321 32.6733 37.4129 33.2148 36.259 33.3996C36.6069 32.5846 37.0872 31.8253 37.344 30.973C38.1425 31.2216 38.807 31.776 39.6043 32.0515ZM2.80661 32.1414C3.29357 32.4362 3.89888 32.665 4.24009 33.1364C5.34023 34.6561 5.78379 38.0267 8.32174 37.354C10.1934 39.9102 13.2864 41.9947 16.278 43.0161C15.3677 43.2385 13.8481 42.3789 13.0232 42.0158C9.80441 40.5991 7.06348 38.3841 4.88672 35.6464C4.27083 34.8719 2.72913 33.1738 2.80661 32.1414ZM10.3108 32.3211C10.5875 33.122 11.0497 33.9209 11.2149 34.7477C10.6066 34.6296 9.98966 34.5099 9.40669 34.2983C10.2221 33.5152 9.95404 33.2706 10.3108 32.3211ZM40.0564 32.411C39.532 34.0757 38.0747 35.7427 36.8964 36.9945C33.3199 40.7943 28.0642 43.7319 22.6972 43.7351C23.5696 43.3462 24.5951 43.2253 25.5 42.8871C27.3249 42.205 29.0211 41.2427 30.5631 40.0593C32.0206 38.9408 33.2861 37.6315 34.4114 36.1857C34.9253 35.5255 35.3153 34.5504 35.9494 34.0091C36.8868 33.2089 38.8974 32.898 40.0564 32.411ZM35.3549 34.1186C34.873 35.3135 33.8688 36.4084 33.0122 37.354C30.4868 40.1416 26.5917 42.9257 22.6972 43.2857C24.1439 41.8722 25.9066 40.9603 27.2169 39.3313C27.8611 38.5303 28.4805 37.7025 28.9997 36.8148C29.269 36.3545 29.5166 35.604 29.9692 35.295C30.4418 34.9724 31.2764 34.9878 31.8289 34.8886C33.0003 34.6783 34.1759 34.237 35.3549 34.1186ZM18.5383 43.1958C17.7561 43.3871 16.5479 42.7834 15.8259 42.4947C13.8157 41.6911 12.0293 40.5099 10.4012 39.1002C9.80721 38.5858 8.93166 37.9005 8.59678 37.1743C8.26307 36.4506 8.98075 36.1495 9.11628 35.628C9.19232 35.3357 9.00191 34.95 8.95463 34.6578C9.62991 34.7203 10.9114 34.8352 11.4455 35.2706C12.4 36.0486 12.9911 37.8734 13.7585 38.8819C15.081 40.6197 16.6708 42.0573 18.5383 43.1958ZM19.8945 43.3756C19.0983 43.4553 17.9778 42.4913 17.3629 42.0486C15.0724 40.3995 13.0461 37.8824 11.9382 35.2869C12.7319 35.3287 15.09 35.3575 15.6648 35.8906C16.204 36.3908 16.3919 37.7524 16.6787 38.4325C17.4162 40.1812 18.3724 42.1695 19.8945 43.3756ZM29.3877 35.3768C27.9803 38.6703 24.8059 42.2676 21.3411 43.4654C22.4824 41.9068 23.6587 40.5989 24.4408 38.792C24.7449 38.0892 25.061 36.29 25.6611 35.8396C26.3274 35.3394 28.5536 35.3785 29.3877 35.3768ZM20.4369 36.0059V43.4654C18.2011 41.8474 16.6695 38.4607 16.0972 35.8262C17.5445 35.8292 18.9864 36.0059 20.4369 36.0059ZM25.2288 35.8262C24.3692 38.4386 23.2152 41.6921 20.889 43.3756V36.0059C22.3381 36.0059 23.7804 35.8262 25.2288 35.8262ZM16.4588 43.1359C16.5287 43.1359 16.4733 43.1806 16.4287 43.1659L16.4588 43.1359ZM16.7301 53.4414H22.1548C22.1557 51.8882 22.0023 49.3061 23.6014 48.4287C24.7399 47.8039 26.5936 48.1389 27.8507 48.1389V47.5996C23.9364 47.5996 18.7909 46.8024 17.1327 51.3743C16.8948 52.03 16.75 52.7449 16.7301 53.4414ZM0.184663 47.7794V59.9123H4.9765V47.7794H0.184663ZM40.418 47.7794V48.3186C41.5329 48.3186 43.3043 47.9768 44.1813 48.815C44.7584 49.3664 44.8699 50.178 44.9653 50.9249C45.1933 52.712 45.2135 54.8878 44.9899 56.6768C44.8944 57.4409 44.7998 58.3335 44.1947 58.8881C43.3094 59.6996 41.5242 59.373 40.418 59.373V59.9123C42.6565 59.9123 45.3445 60.3093 47.3797 59.1879C51.0189 57.1826 51.305 51.2556 47.9222 48.8642C45.7873 47.3551 42.8911 47.7794 40.418 47.7794ZM70.0731 59.9123V59.373C69.0037 59.373 67.2294 59.687 66.3794 58.8994C65.6258 58.2011 65.5931 57.083 65.5472 56.1376C65.4637 54.4185 65.5016 52.7337 65.555 51.0148C65.5793 50.2317 65.8322 49.2367 66.4631 48.7193C67.341 47.9993 69.0075 48.3186 70.0731 48.3186V47.7794C67.7888 47.7794 64.9475 47.3536 62.9306 48.6529C59.4011 50.9265 59.2895 56.9362 63.021 59.112C65.0823 60.314 67.7857 59.9123 70.0731 59.9123ZM22.2452 54.0705C22.2452 55.6327 22.5344 58.2102 20.8881 59.1066C19.7445 59.7295 17.8193 59.373 16.5492 59.373V59.9123C20.5057 59.9123 25.6628 60.7689 27.3338 56.1376C27.5743 55.4714 27.6685 54.7749 27.6699 54.0705H22.2452ZM10.7629 55.2016C8.90083 55.6432 9.5414 58.552 11.3958 58.139C13.3466 57.7044 12.6907 54.7445 10.7629 55.2016ZM34.3604 55.202C32.5831 55.6372 33.1876 58.5387 34.9933 58.1517C36.9863 57.7247 36.3339 54.7188 34.3604 55.202ZM54.7031 55.202C52.9258 55.6372 53.5303 58.5387 55.336 58.1517C57.329 57.7247 56.6766 54.7188 54.7031 55.202Z" fill="#D9AC1A"/>
</svg>
