<svg width="38" height="41" viewBox="0 0 38 41" fill="none" xmlns="http://www.w3.org/2000/svg">
<path d="M5.58264 6.6361C4.5519 4.2118 4.16217 3.30903 2.58272 0.981103C1.00584 -1.34936 -1.18129 1.18144 0.769944 3.02755C2.72118 4.87367 2.62118 6.33686 3.78782 8.41121C1.3007 12.2175 1.22121 18.7423 1.75453 23.3551C2.28785 27.9678 2.32375 32.9534 5.64674 36.496C8.96973 40.0386 13.5696 40.0107 18.4028 40.6168C23.236 41.2228 29.3333 41.0479 34.2947 39.8509C39.2536 38.6515 37.7869 31.513 32.505 31.4876C39.3407 26.3246 40.051 14.6317 33.2101 9.23536C26.3693 3.83903 15.7696 6.75782 11.4799 13.9901C11.3312 11.5734 12.1312 8.51011 9.9415 6.88968C10.0159 5.35295 14.5029 1.18651 12.1645 0.126515C9.82612 -0.933479 8.65692 4.98271 7.89027 6.12892C7.05183 6.05285 6.25955 6.16189 5.58264 6.6361ZM8.40308 8.15762C10.5876 8.71297 9.39793 12.7475 9.6851 14.4973C9.97227 16.247 9.39793 20.1903 9.6851 22.1049C9.97227 24.0195 10.4415 26.2485 11.5594 27.8588C12.6748 29.4716 13.8722 30.5671 15.6465 31.4242C17.4182 32.2814 19.5797 32.6871 21.5361 33.207C23.495 33.7243 26.4257 33.6583 28.4026 34.0235C30.3794 34.3861 33.5127 33.3997 34.8716 35.2331C36.2306 37.0666 32.7948 38.0479 30.9666 38.0809C29.1359 38.1139 25.6744 38.5145 23.5309 38.3345C21.3874 38.1544 18.4592 38.1671 16.349 37.8298C14.2414 37.49 11.9748 37.3506 10.1389 36.3641C8.30565 35.3751 7.3108 34.3557 6.28775 32.5654C5.26214 30.7776 5.0724 28.546 4.72882 26.4996C4.38524 24.4531 4.29037 21.3771 4.30062 19.3155C4.31088 17.2538 4.26216 13.7923 4.81086 12.2125C5.35957 10.6352 6.5339 7.68341 8.40308 8.15762ZM18.6592 29.9661C16.5362 29.4463 14.7337 28.3558 13.4542 26.492C12.1748 24.6281 11.6543 21.4075 12.0773 19.1455C12.5004 16.8836 13.6004 14.903 15.0491 13.2091C16.4977 11.5126 18.3823 10.5337 20.4592 9.68421C22.5386 8.83723 26.2231 8.52786 28.4026 9.17197C30.582 9.81608 32.1332 10.9166 33.5947 12.6588C35.0562 14.4009 35.6819 17.0382 35.8357 19.318C35.9921 21.5977 35.1409 24.4303 34.064 26.4362C32.9845 28.4395 31.4025 29.7404 29.2513 30.5519C27.1 31.3608 24.1027 30.7117 22.0745 29.6314C20.0464 28.5486 18.9413 26.7709 18.4054 24.6382C17.8695 22.5081 18.5669 19.5893 20.1335 17.9841C21.7027 16.3814 25.0975 15.7424 26.6718 17.4769C28.2436 19.214 28.6077 21.6104 26.159 23.4362C23.7078 25.2621 26.6103 26.5883 28.2103 24.197C29.8102 21.8057 30.2846 20.2005 29.4461 17.7762C28.6077 15.3493 26.3924 14.3604 24.0437 14.2437C21.695 14.1271 19.3823 15.149 17.8259 16.9698C16.2721 18.7931 15.6593 21.4836 15.8388 23.88C16.0183 26.2764 16.9362 28.2569 18.6592 29.9661Z" fill="#2C6518"/>
</svg>
