<svg width="11" height="10" viewBox="0 0 11 10" fill="none" xmlns="http://www.w3.org/2000/svg">
<path d="M9.01423 9.18517C8.94945 9.17383 8.88754 9.14982 8.83205 9.11452C8.77656 9.07922 8.72858 9.03331 8.69085 8.97944C8.65313 8.92557 8.62641 8.86478 8.61221 8.80056C8.59802 8.73635 8.59663 8.66996 8.60814 8.60521L9.62711 2.83038L0.786004 9.02099C0.677377 9.09705 0.542985 9.12685 0.412391 9.10382C0.281798 9.08079 0.165701 9.00683 0.0896395 8.8982C0.0135784 8.78958 -0.0162161 8.65518 0.00681111 8.52459C0.0298383 8.394 0.103801 8.2779 0.212427 8.20184L9.05354 2.01123L3.27846 0.993646C3.14771 0.97059 3.03146 0.896534 2.9553 0.78777C2.87915 0.679007 2.84932 0.544445 2.87237 0.413686C2.89543 0.282928 2.96948 0.166684 3.07825 0.0905269C3.18701 0.0143698 3.32157 -0.0154619 3.45233 0.00759404L10.416 1.23547C10.4808 1.24681 10.5427 1.27082 10.5982 1.30612C10.6536 1.34142 10.7016 1.38732 10.7393 1.4412C10.7771 1.49507 10.8038 1.55586 10.818 1.62007C10.8322 1.68429 10.8336 1.75068 10.8221 1.81543L9.59419 8.77907C9.58285 8.84386 9.55884 8.90577 9.52354 8.96126C9.48824 9.01675 9.44234 9.06473 9.38846 9.10245C9.33459 9.14017 9.2738 9.16689 9.20959 9.18109C9.14537 9.19528 9.07898 9.19667 9.01423 9.18517Z" fill="black"/>
</svg>
