<svg width="20" height="20" viewBox="0 0 20 20" fill="none" xmlns="http://www.w3.org/2000/svg">
<path d="M12.3673 13.5503C14.884 14.0253 16.6673 15.242 16.6673 16.667V18.3337H3.33398V16.667C3.33398 15.242 5.11732 14.0253 7.63398 13.5503L10.0007 17.5003L12.3673 13.5503ZM6.66732 6.667H13.334V8.33367C13.334 9.21772 12.9828 10.0656 12.3577 10.6907C11.7326 11.3158 10.8847 11.667 10.0007 11.667C9.1166 11.667 8.26875 11.3158 7.64363 10.6907C7.01851 10.0656 6.66732 9.21772 6.66732 8.33367V6.667ZM6.66732 5.83367L7.00898 2.417C7.02971 2.21073 7.12658 2.0196 7.28067 1.88091C7.43476 1.74223 7.63501 1.66596 7.84232 1.667H12.1673C12.5923 1.667 12.9507 1.992 12.9923 2.417L13.334 5.83367H6.66732ZM10.0007 2.50034H9.16732V3.33367H8.33398V4.167H9.16732V5.00034H10.0007V4.167H10.834V3.33367H10.0007V2.50034Z" fill="#5D5D5D" fill-opacity="0.69"/>
</svg>
