<svg width="26" height="26" viewBox="0 0 26 26" fill="none" xmlns="http://www.w3.org/2000/svg">
<path d="M20.5832 11.9166C19.8971 11.9166 19.1658 11.7227 18.3895 11.3349C17.6131 10.947 16.8908 10.4097 16.2228 9.72288C15.5547 9.03604 15.0268 8.30479 14.639 7.52913C14.2511 6.75346 14.0568 6.03124 14.0561 5.36246C14.0561 5.05552 14.1013 4.77566 14.1915 4.52288C14.2818 4.2701 14.4172 4.05343 14.5978 3.87288C15.0672 3.40343 16.0198 2.99249 17.4556 2.64005C18.8914 2.2876 20.2409 2.13882 21.504 2.19371C21.9554 2.22982 22.3303 2.28399 22.6285 2.35621C22.9268 2.42843 23.1478 2.53677 23.2915 2.68121C23.4179 2.8076 23.5219 3.00188 23.6035 3.26404C23.6851 3.52621 23.7436 3.85554 23.779 4.25204C23.8693 5.49788 23.7429 6.8701 23.3999 8.36871C23.0568 9.86732 22.6415 10.8604 22.154 11.3479C21.9735 11.5284 21.7435 11.6685 21.464 11.7682C21.1845 11.8679 20.8909 11.9173 20.5832 11.9166ZM21.5311 6.49996C21.5672 6.17496 21.5943 5.83191 21.6124 5.47079C21.6304 5.10968 21.6485 4.73052 21.6665 4.33329C21.3054 4.31524 20.94 4.31993 20.5702 4.34738C20.2004 4.37482 19.8346 4.40624 19.4728 4.44163C19.6714 4.58607 19.8657 4.73954 20.0556 4.90204C20.2456 5.06454 20.4214 5.22704 20.5832 5.38954C20.7638 5.5701 20.931 5.75066 21.0848 5.93121C21.2386 6.11177 21.3874 6.30135 21.5311 6.49996ZM20.5832 9.74996C20.6013 9.38885 20.4658 8.94216 20.177 8.40988C19.8881 7.8776 19.5089 7.38541 19.0395 6.93329C18.5881 6.48191 18.1049 6.11646 17.59 5.83696C17.075 5.55746 16.6377 5.41735 16.278 5.41663C16.3141 5.83191 16.4676 6.30135 16.7385 6.82496C17.0093 7.34857 17.3433 7.80899 17.7405 8.20621C18.1739 8.63954 18.648 8.99632 19.163 9.27654C19.6779 9.55677 20.1513 9.71457 20.5832 9.74996ZM23.0749 20.2583L17.9832 15.1666H7.14987L1.4082 9.42496L2.92487 7.90829L8.01654 13H18.8499L24.5915 18.7416L23.0749 20.2583ZM8.66654 23.8333V19.5C8.66654 18.9041 8.87887 18.3942 9.30354 17.9703C9.7282 17.5463 10.2381 17.334 10.8332 17.3333H15.1665C15.7624 17.3333 16.2726 17.5456 16.6973 17.9703C17.122 18.395 17.3339 18.9049 17.3332 19.5V23.8333H8.66654ZM10.8332 21.6666H15.1665V19.5H10.8332V21.6666Z" fill="#5484EA"/>
</svg>
